<?xml version="1.0" standalone="no"?>
<!DOCTYPE svg PUBLIC "-//W3C//DTD SVG 1.1//EN" "http://www.w3.org/Graphics/SVG/1.1/DTD/svg11.dtd" >
<svg xmlns="http://www.w3.org/2000/svg">
<metadata></metadata>
<defs>
<font id="sansumi-demiboldregular" horiz-adv-x="1024" >
<font-face units-per-em="2048" ascent="1638" descent="-410" />
<missing-glyph horiz-adv-x="544" />
<glyph horiz-adv-x="2048" />
<glyph horiz-adv-x="2048" />
<glyph horiz-adv-x="682" />
<glyph d="M205 1436q27 -43 56.5 -80t66.5 -64.5t82 -43t102 -15.5t102 15.5t82 43t66.5 64.5t56.5 80h-114q-39 -43 -81 -72t-112 -29t-112 29t-81 72h-114z" />
<glyph d="M461 1221h102v223h-102v-223z" />
<glyph d="M322 1317q0 -41 17 -70.5t45 -50t61.5 -30t64.5 -9.5h2q33 0 66.5 9.5t61.5 30t45 50t17 70.5t-17 70.5t-45 50t-61.5 30t-66.5 9.5t-66.5 -9.5t-61.5 -30t-45 -50t-17 -70.5zM424 1317q0 23 21.5 41t64.5 18t64.5 -18t21.5 -41q0 -20 -17.5 -40t-66.5 -20h-2 q-51 0 -68.5 20.5t-17.5 39.5z" />
<glyph unicode="&#xa;" d="M260 1116h100l281 354h-154zM578 1116h100l280 354h-153z" />
<glyph d="M340 -168q0 -37 16.5 -65.5t42 -47t58 -27.5t67.5 -9q66 0 121.5 28.5t106.5 81.5l-76 57q-39 -35 -74 -50t-67 -15q-29 0 -46.5 6t-26.5 14.5t-12.5 16.5t-3.5 14q0 18 10.5 40t45.5 50l125 107h-146l-47 -35q-55 -43 -74.5 -84t-19.5 -82z" />
<glyph d="M117 1421l383 -254h24l383 254h-153l-242 -131l-242 131h-153z" />
<glyph unicode="&#xd;" horiz-adv-x="573" d="M233 -33h107v1155h-107v-1155z" />
<glyph horiz-adv-x="606" d="M-403 -57h133l1302 1534h-131z" />
<glyph horiz-adv-x="1779" d="M57 1020h269v-1565h106v1565h664v102h-664v111q0 90 35 148.5t92 93t129 48t156 13.5q72 0 136 -10t118 -29q47 -16 85 -39.5t79 -71.5l61 95q-59 47 -103 71.5t-87 40.5q-66 25 -137.5 34t-151.5 9q-104 0 -191.5 -18.5t-152.5 -58.5q-86 -51 -130 -134.5t-44 -189.5 v-113h-269v-102zM1440 -33h106v1155h-106v-1155zM1440 1292h106v230h-106v-230z" />
<glyph horiz-adv-x="1779" d="M57 1020h269v-1565h106v1565h664v102h-664v111q0 90 35 148.5t92 93t129 48t156 13.5q72 0 136 -10t118 -29q47 -16 85 -39.5t79 -71.5l61 95q-59 47 -103 71.5t-87 40.5q-66 25 -137.5 34t-151.5 9q-104 0 -191.5 -18.5t-152.5 -58.5q-86 -51 -130 -134.5t-44 -189.5 v-113h-269v-102zM1440 -33h106v1555h-106v-1555z" />
<glyph horiz-adv-x="1411" d="M96 567l178 56v-656h1078v105h-967v583l428 131v107l-428 -131v723h-111v-756l-178 -55v-107z" />
<glyph horiz-adv-x="573" d="M90 567l143 113v-713h107v797l149 117v125l-149 -117v633h-107v-717l-143 -113v-125z" />
<glyph horiz-adv-x="1423" d="M143 -33h1162v105h-1012l975 1331v82h-1055v-105h907l-977 -1331v-82zM252 1716l453 -203h16l453 203h-197l-264 -90l-6 2l-29 10l-92 31l-137 47h-197z" />
<glyph horiz-adv-x="1236" d="M96 -33h1100v103h-942l909 966v86h-1024v-102h869l-912 -967v-86zM223 1421l383 -254h25l383 254h-154l-242 -131l-241 131h-154z" />
<glyph unicode=" "  horiz-adv-x="544" />
<glyph unicode="&#x09;" horiz-adv-x="544" />
<glyph unicode="&#xa0;" horiz-adv-x="544" />
<glyph unicode="!" horiz-adv-x="655" d="M274 -33h107v230h-107v-230zM274 1485l7 -1198h94l6 1198h-107z" />
<glyph unicode="&#x22;" horiz-adv-x="722" d="M176 1485l17 -400h86l16 400h-119zM428 1485l16 -400h86l17 400h-119z" />
<glyph unicode="#" horiz-adv-x="1474" d="M47 496h352l-215 -529h111l215 529h268l-215 -529h111l215 529h356l37 98h-354l106 258h357l36 98h-352l203 500h-111l-202 -500h-269l203 500h-111l-202 -500h-357l-36 -98h352l-107 -258h-354zM549 594l106 258h269l-107 -258h-268z" />
<glyph unicode="$" horiz-adv-x="1744" d="M233 225q55 -66 125 -109.5t146 -70.5t154.5 -39t152.5 -14v-168h102v170q121 6 225.5 39t181.5 87t121 128t44 160q0 59 -18.5 107t-50.5 85t-74 64.5t-87 48t-94 35t-98 26.5q-41 10 -78 17.5t-72 15.5v508q92 -4 160 -19.5t117 -40t83 -58.5t58 -73l90 56 q-35 55 -76.5 97t-101 70.5t-139.5 46t-191 21.5v150h-102v-150q-156 -4 -258 -36.5t-162.5 -81t-85 -104.5t-24.5 -110q0 -88 37.5 -145t95 -93t127 -56.5t131.5 -32.5q37 -8 71.5 -14.5t67.5 -14.5v-635q-154 6 -279.5 50t-218.5 157zM387 1075q0 35 14.5 74t58.5 73.5 t128 60.5t223 32v-486q-53 12 -111 25q-41 8 -79.5 17.5t-75.5 23.5q-72 27 -115 69t-43 111zM913 94v608q31 -6 63 -13t66 -15q43 -10 85 -23.5t81 -29.5q78 -33 124 -84.5t46 -137.5q0 -55 -31.5 -107t-92 -95t-146.5 -71t-195 -32z" />
<glyph unicode="%" horiz-adv-x="2080" d="M143 1104q0 -86 29 -159t81 -127t126 -85t162 -31t161.5 31t126 84t81 127t28.5 158v2q0 86 -28.5 158.5t-81 127t-126 85t-161.5 30.5t-162 -30.5t-126 -85t-81 -127t-29 -158.5zM250 1102q0 135 79 218t212 83t211.5 -83t78.5 -218t-78.5 -218t-209.5 -83h-2 q-133 0 -212 83t-79 218zM391 -55h129l1170 1554h-127zM1145 342q0 -86 28.5 -158.5t81 -127t126 -85t161.5 -30.5t162 30.5t126 84t80.5 127t28.5 157.5v2q0 86 -28.5 158.5t-80.5 127t-126 85t-162 30.5t-161.5 -30.5t-126 -85t-81 -127t-28.5 -158.5zM1251 340 q0 135 79 218t212 83t212 -83t79 -218t-79 -218t-210 -83h-2q-133 0 -212 83t-79 218z" />
<glyph unicode="&#x26;" horiz-adv-x="1914" d="M203 334q0 -102 41 -176t116.5 -123t180 -72.5t231.5 -23.5q113 0 207 17t172 46t137.5 63.5t102.5 71.5q92 -57 161.5 -96t135.5 -74h231q-80 39 -142.5 71t-113.5 59.5t-96 54t-94 57.5q92 98 159.5 230t89.5 311h-102q-23 -158 -85 -278t-149 -208 q-166 117 -309 235.5t-272 245.5q80 33 151.5 72t126 85t85 102.5t30.5 125.5q0 76 -32.5 130.5t-86 88t-123 49t-143.5 15.5q-70 0 -135.5 -17.5t-116.5 -52t-81.5 -89t-30.5 -128.5q0 -51 15 -99t39.5 -92t56.5 -84t65 -75q-82 -31 -159 -72.5t-135.5 -95t-93 -121 t-34.5 -153.5zM309 330v2q0 106 91.5 197.5t299.5 170.5q139 -139 296 -271t309 -236q-117 -88 -251 -122t-276 -34q-27 0 -71.5 1t-96 10t-105.5 26.5t-97 50.5t-71 83t-28 122zM555 1126v2q0 76 64.5 130.5t203.5 54.5q121 0 196 -49t75 -129q0 -49 -27 -92.5t-74 -82 t-114.5 -73.5t-149.5 -70q-80 86 -127 156.5t-47 152.5z" />
<glyph unicode="'" horiz-adv-x="471" d="M176 1485l17 -400h86l16 400h-119z" />
<glyph unicode="(" horiz-adv-x="1015" d="M336 598q0 -174 33.5 -340t113.5 -317q29 -57 62 -104.5t69.5 -90.5t81.5 -83t99 -83l71 66q-102 80 -171.5 161.5t-123.5 186.5q-41 82 -66.5 166t-39.5 162.5t-18.5 149.5t-4.5 126t5.5 126t18.5 148.5t37.5 159.5t63.5 162q53 111 125 193.5t174 162.5l-71 66 q-53 -43 -97.5 -82t-81 -81t-69.5 -91t-66 -111q-78 -143 -111.5 -310t-33.5 -343z" />
<glyph unicode=")" horiz-adv-x="1015" d="M150 -354l71 -66q53 43 98.5 83t82 83t69.5 90t61 105q80 152 114 317.5t34 339.5q0 176 -34 343t-111 310q-33 61 -66 110.5t-70 91.5t-81 81t-97 82l-71 -66q102 -80 173.5 -162.5t125.5 -193.5q39 -80 63.5 -162t37.5 -159.5t18 -148.5t5 -126t-5 -126t-18 -149.5 t-39 -162.5t-67 -166q-53 -104 -122.5 -186t-171.5 -162z" />
<glyph unicode="*" horiz-adv-x="1396" d="M283 889l53 -94l317 192l-8 -371h107l-9 371l318 -192l53 94l-328 176l326 176l-53 94l-316 -194l9 372h-107l8 -372l-315 194l-53 -94l325 -176z" />
<glyph unicode="+" horiz-adv-x="1638" d="M262 469h506v-412h102v412h506v98h-506v379h-102v-379h-506v-98z" />
<glyph unicode="," horiz-adv-x="532" d="M156 -197h88l106 394h-119z" />
<glyph unicode="-" horiz-adv-x="817" d="M-2 637h645v102h-645v-102z" />
<glyph unicode="." horiz-adv-x="532" d="M66 -33h106v230h-106v-230z" />
<glyph unicode="/" horiz-adv-x="1482" d="M127 -57h125l1116 1603h-123z" />
<glyph unicode="0" horiz-adv-x="1744" d="M121 711q0 -178 57.5 -320.5t157.5 -242t237.5 -152.5t298.5 -53q162 0 299.5 53t237.5 152.5t157.5 242t57.5 320.5t-57.5 319t-157.5 240.5t-237.5 153t-299.5 53.5t-299 -53.5t-237 -153t-157.5 -240.5t-57.5 -317v-2zM227 711q0 166 51.5 290.5t139.5 208.5 t204.5 126t247.5 42h2q131 0 249 -43t206 -127t139.5 -208.5t51.5 -288.5t-51.5 -288t-139.5 -208t-205.5 -127t-249.5 -43q-133 0 -249.5 43t-204.5 127t-139.5 208t-51.5 288z" />
<glyph unicode="1" horiz-adv-x="1447" d="M211 1227l45 -94l496 196v-1362h106v1495h-51z" />
<glyph unicode="2" horiz-adv-x="1744" d="M211 8l41 -41h1253v107h-1165q39 102 105.5 179t149.5 137.5t176 107.5t190 90q51 23 99 44t93 44q63 33 122.5 70.5t105.5 87t75 112t29 141.5q0 70 -33 139.5t-107.5 125t-198.5 90.5t-306 35q-244 0 -392.5 -88.5t-207.5 -274.5l112 -16q45 139 162 208.5t322 69.5 q174 0 280.5 -30.5t164.5 -74.5t77.5 -94.5t19.5 -89.5q0 -78 -37.5 -135t-105.5 -104q-74 -51 -162 -92q-45 -23 -93 -45.5t-99 -44.5q-100 -47 -204 -102.5t-196 -132.5t-162.5 -179t-107.5 -244z" />
<glyph unicode="3" horiz-adv-x="1744" d="M219 326q33 -88 87 -159t134 -121t188.5 -76.5t254.5 -26.5q147 0 260.5 31.5t191.5 88t118 136.5t40 176q0 80 -37 151.5t-103.5 127t-157.5 88t-202 32.5v-33q92 0 169 35t133.5 87t87 113.5t30.5 117.5q0 82 -33.5 151.5t-101.5 120.5t-169 81t-239 30 q-145 0 -246.5 -31t-169 -82t-105.5 -115.5t-52 -132.5l104 -22q12 49 39 99t80 91t137 66.5t213 25.5q125 0 209 -24.5t134.5 -64.5t72 -90t21.5 -101q0 -37 -16.5 -85t-73 -93.5t-165 -79t-292.5 -41.5v-92q201 -8 323.5 -39t190 -76t90 -101.5t22.5 -113.5 q0 -70 -29.5 -130.5t-91 -105.5t-156.5 -70.5t-226 -25.5q-135 0 -229.5 23.5t-159 65.5t-105.5 99.5t-67 126.5z" />
<glyph unicode="4" horiz-adv-x="1744" d="M199 377h882v-410h107v410h330v102h-330v983h-80l-909 -1011v-74zM365 479l428 479q76 86 150.5 170t150.5 170q-10 -86 -11.5 -179t-1.5 -191v-449h-716z" />
<glyph unicode="5" horiz-adv-x="1744" d="M201 315q35 -78 88 -145.5t131 -118.5t182.5 -79.5t241.5 -28.5q162 0 284.5 42t206.5 110.5t127 157.5t43 183q0 111 -47 203t-133 157.5t-206 101.5t-263 36q-121 0 -220 -27.5t-171 -66.5l104 503h830v107h-916l-153 -756l69 -28q66 68 178.5 118t276.5 50 q129 0 229.5 -31t171 -85t107.5 -127t37 -157q0 -88 -43 -160.5t-119 -124t-177.5 -79t-217.5 -27.5q-121 0 -208 24.5t-149.5 66.5t-106.5 98.5t-75 119.5z" />
<glyph unicode="6" horiz-adv-x="1744" d="M190 598q0 -104 30 -220t110 -212t219 -159.5t358 -63.5q197 0 326 52t206 128t108.5 162.5t31.5 158.5q0 113 -50 204t-142.5 154.5t-220.5 97.5t-283 34q-221 0 -365.5 -64.5t-216.5 -160.5q20 326 171 496.5t452 170.5q203 0 319.5 -75.5t177.5 -206.5l101 36 q-78 164 -220.5 255.5t-377.5 91.5q-201 0 -340.5 -67t-227.5 -183.5t-127 -277.5t-39 -351zM313 473v2q0 49 29 111.5t96.5 117t179 92.5t275.5 38q276 0 428 -107t152 -285q0 -61 -27 -130.5t-91.5 -130t-174 -99.5t-273.5 -39q-133 0 -229 27.5t-161.5 69.5t-105.5 93.5 t-61.5 99.5t-29 86t-7.5 54z" />
<glyph unicode="7" horiz-adv-x="1744" d="M274 1346h1039l-703 -1379h121l717 1417v66h-1174v-104z" />
<glyph unicode="8" horiz-adv-x="1744" d="M190 369q0 -104 52.5 -183.5t144.5 -132.5t217 -80.5t268 -27.5q154 0 279 28.5t215 83t139 133.5t49 179q0 74 -27.5 136t-74.5 112.5t-110.5 86t-133.5 58.5q61 18 114.5 46t93.5 67.5t62.5 93t22.5 118.5q0 86 -44 158t-125 123t-197.5 80t-262.5 29 q-145 0 -261.5 -29t-197.5 -80t-125 -122.5t-44 -158.5q0 -63 22.5 -114t62.5 -92t92 -71t114 -48q-70 -23 -132.5 -59.5t-109.5 -87t-75 -112t-28 -134.5zM297 365v2q0 61 32.5 123.5t102.5 112.5t179.5 82t260.5 32q152 0 261.5 -32t179 -82t102.5 -112.5t33 -123.5 q0 -72 -39 -131.5t-112.5 -102.5t-181 -66.5t-243.5 -23.5q-135 0 -242.5 23.5t-181 66.5t-112.5 101.5t-39 130.5zM350 1085v2q0 55 32 106.5t96.5 92.5t162.5 65.5t231 24.5t231.5 -24.5t163 -65.5t96.5 -92.5t32 -106.5t-31 -105t-94.5 -88t-161.5 -61.5t-236 -23.5 q-137 0 -236 22.5t-162.5 61.5t-93.5 89t-30 103z" />
<glyph unicode="9" horiz-adv-x="1744" d="M190 989q0 -92 37 -182t119 -162t215 -116t326 -44q221 0 365.5 64.5t215.5 163.5q-10 -154 -48 -277t-112.5 -211t-188 -135t-273.5 -47q-104 0 -184 21.5t-141.5 61.5t-108.5 94t-84 120l-101 -39q45 -80 102.5 -145.5t132.5 -112.5t169 -73.5t215 -26.5 q205 0 345 68.5t226 187t124 279.5t38 343q0 41 -7 105.5t-30.5 137.5t-71 146.5t-127 133t-199.5 96.5t-288 37q-188 0 -316 -48.5t-206 -120t-111 -157.5t-33 -162zM297 987q0 55 24.5 123t87 127t172 99t281.5 40q133 0 229.5 -27.5t162 -69.5t105.5 -93t61.5 -99.5 t28.5 -86t7 -54.5v-2q0 -57 -32.5 -120.5t-102.5 -116t-179.5 -87t-264.5 -34.5q-143 0 -252 29.5t-181.5 84t-109.5 128t-37 159.5z" />
<glyph unicode=":" horiz-adv-x="532" d="M213 -33h106v230h-106v-230zM213 801h106v229h-106v-229z" />
<glyph unicode=";" horiz-adv-x="532" d="M156 -197h88l106 394h-119zM213 801h106v229h-106v-229z" />
<glyph unicode="&#x3c;" horiz-adv-x="1638" d="M262 481l1032 -465v109l-886 393l886 393v109l-1032 -465v-74z" />
<glyph unicode="=" horiz-adv-x="1638" d="M262 338h1114v98h-1114v-98zM262 600h1114v98h-1114v-98z" />
<glyph unicode="&#x3e;" horiz-adv-x="1638" d="M344 16l1032 465v74l-1032 465v-109l887 -393l-887 -393v-109z" />
<glyph unicode="?" horiz-adv-x="1198" d="M-29 1167l97 -43q29 61 71.5 112.5t107 86.5t152.5 54.5t209 19.5q102 0 190.5 -14.5t153 -45t101.5 -81t37 -121.5q0 -51 -12.5 -91t-40 -75t-75 -67t-116.5 -64q-111 -53 -181.5 -103.5t-110.5 -113t-54.5 -142.5t-7.5 -192h94q-2 88 7 152.5t40 115.5t89 95t157 91 q86 41 145 81t98 86t56.5 100t17.5 122q0 106 -49 178t-130 113t-185.5 58.5t-215.5 17.5q-141 0 -246.5 -23.5t-182 -66.5t-129 -103.5t-87.5 -136.5zM489 -33h107v230h-107v-230z" />
<glyph unicode="@" horiz-adv-x="2039" d="M143 467q0 -154 60.5 -286t170 -227t260 -149.5t331.5 -54.5q143 0 292.5 27.5t296.5 126.5l-71 69q-119 -72 -234.5 -97.5t-257.5 -25.5q-164 0 -300 46.5t-234.5 128t-152.5 195.5t-54 247q0 197 78 337t207 238q127 94 280.5 138.5t329.5 44.5q94 0 171 -12.5 t139.5 -34t111.5 -49t88 -58.5q88 -72 121.5 -161t33.5 -169q0 -66 -13 -131t-37.5 -125.5t-57.5 -113t-70 -86.5q-20 -18 -55 -19q-12 0 -25.5 1t-27.5 1v523v28l-4 -2q-4 37 -20.5 96.5t-57.5 115.5t-113 97t-182 41q-57 0 -123 -4t-122 -10t-94 -10l-38 -4l10 -105l31 5 t82 11.5t116.5 11.5t135.5 5q104 0 160.5 -44t81 -99.5t27.5 -104.5t3 -57v-19q-219 -18 -392 -47.5t-292 -81t-181.5 -131.5t-62.5 -200q0 -61 26 -122t84 -108t154.5 -75.5t237.5 -28.5q45 0 105.5 10t125 32.5t130 59.5t118.5 92l23 23h41q10 2 22 2h25q27 0 56.5 7 t58.5 30q51 43 92 108.5t69.5 139t44 148t15.5 140.5q0 115 -51 220.5t-149.5 186.5t-243 129t-332.5 48q-209 0 -391.5 -59.5t-316.5 -171t-212 -270t-78 -357.5zM596 285q0 86 48 145t148.5 100t256 68t368.5 45v-412l-8 -14q-49 -55 -106.5 -88t-115 -50.5t-108.5 -23.5 t-84 -6q-127 0 -204.5 23.5t-120.5 58.5t-58.5 77t-15.5 77z" />
<glyph unicode="A" horiz-adv-x="1415" d="M0 -33h119l225 506h723l227 -506h121l-674 1518h-69zM391 578l166 383l74 172t76 178q39 -94 77.5 -182.5t75.5 -176.5l162 -374h-631z" />
<glyph unicode="B" horiz-adv-x="1640" d="M274 -33h426q84 0 178.5 4t184.5 19.5t173 44t146.5 77t100.5 118t37 167.5q0 154 -101.5 246t-275.5 129q147 45 214.5 131t67.5 205q0 86 -39.5 155.5t-127 119t-223.5 76t-326 26.5h-435v-1518zM385 72v643h348q182 0 310 -23.5t210 -65.5t119 -100.5t37 -128.5 q0 -104 -61.5 -168.5t-162 -99.5t-227.5 -46t-258 -11h-315zM385 819v561h317q178 0 297 -22.5t188.5 -59t98.5 -85t29 -101.5q0 -51 -18.5 -103.5t-82 -94.5t-184.5 -68.5t-325 -26.5h-320z" />
<glyph unicode="C" horiz-adv-x="1728" d="M131 727q0 -180 64.5 -327.5t181.5 -258.5q92 -86 240.5 -144t334.5 -58q127 0 229.5 34.5t185.5 89t146.5 121.5t112.5 133l-90 62q-39 -53 -93 -112.5t-127 -110t-163 -83t-201 -32.5q-137 0 -265 42t-227.5 126t-158.5 213t-59 303q0 184 63.5 314t165.5 213t231 121 t261 38q94 0 171.5 -22.5t142 -63.5t116 -96t92.5 -119l92 57q-47 76 -108.5 139.5t-137.5 109.5t-168 71.5t-200 25.5q-180 0 -332 -54t-264 -159q-111 -104 -173.5 -248.5t-62.5 -324.5z" />
<glyph unicode="D" horiz-adv-x="1763" d="M274 -33h496q217 0 380 54.5t269.5 152.5t159.5 238.5t53 312.5t-53 312.5t-159.5 239.5t-269.5 153.5t-380 54.5h-496v-1518zM385 72v1308h389q197 0 339 -48t232.5 -134t133.5 -207t43 -266t-43 -265t-133.5 -206t-232.5 -134t-339 -48h-389z" />
<glyph unicode="E" horiz-adv-x="1472" d="M274 -33h1047v105h-936v635h737v104h-737v569h907v105h-1018v-1518z" />
<glyph unicode="F" horiz-adv-x="1433" d="M274 -33h111v740h737v104h-737v569h907v105h-1018v-1518z" />
<glyph unicode="G" horiz-adv-x="1712" d="M131 725q0 -188 66.5 -333.5t178 -247t259 -153.5t307.5 -52q82 0 158 9t148.5 30.5t144 56.5t147.5 84v549h-702v-105h592v-389q-104 -66 -229.5 -99.5t-244.5 -33.5q-147 0 -278 45t-227.5 132t-152.5 214t-56 293q0 129 31.5 229.5t86 177t125 130t149.5 86t161 48 t155 15.5q90 0 162 -16.5t133.5 -50t114.5 -85t106 -120.5l90 57q-59 76 -120.5 135.5t-133 100.5t-159.5 61t-201 20q-86 0 -180 -18t-184.5 -58t-171 -102.5t-142 -150.5t-97.5 -202t-36 -257z" />
<glyph unicode="H" horiz-adv-x="1873" d="M274 -33h111v744h1104v-744h110v1518h-110v-670h-1104v670h-111v-1518z" />
<glyph unicode="I" horiz-adv-x="700" d="M295 -33h111v1518h-111v-1518z" />
<glyph unicode="J" horiz-adv-x="1288" d="M-31 160q51 -49 103.5 -90t111 -71t126 -45t151.5 -15q268 0 415.5 183t147.5 535v828h-111v-826q0 -317 -119.5 -466.5t-330.5 -149.5q-131 0 -228.5 51t-193.5 146z" />
<glyph unicode="K" horiz-adv-x="1523" d="M274 -33h111v551l270 260l715 -811h148l-787 883l666 635h-156l-467 -447q-98 -94 -194.5 -187t-194.5 -187v354v467h-111v-1518z" />
<glyph unicode="L" horiz-adv-x="1411" d="M274 -33h1078v105h-967v1413h-111v-1518z" />
<glyph unicode="M" horiz-adv-x="2611" d="M274 -33h111v809t-2 524q127 -193 345 -522t538 -811h82q317 477 537 808t347 525q-2 -197 -2 -524v-809h111v1518h-113q-338 -508 -567 -852t-352 -531q-123 186 -352.5 530.5t-567.5 852.5h-115v-1518z" />
<glyph unicode="N" horiz-adv-x="1851" d="M274 -33h111v821t-2 527q154 -193 424 -526.5t666 -821.5h104v1518h-111v-823q0 -332 2 -525q-152 190 -423 524t-666 824h-105v-1518z" />
<glyph unicode="O" horiz-adv-x="1925" d="M131 725q0 -199 69.5 -346.5t185.5 -245.5t266.5 -146t310.5 -48t310 48t266 146t185.5 245.5t69.5 346.5t-69.5 347.5t-185.5 246.5t-266.5 146t-309.5 48q-160 0 -310.5 -48t-266.5 -146t-185.5 -245.5t-69.5 -346.5v-2zM242 727q0 174 59 304t158.5 214t229.5 126 t272 42h2q141 0 272 -42t230.5 -126t158.5 -214t59 -304t-59 -303t-158.5 -213t-230.5 -126t-272 -42t-272.5 42t-231 126t-158.5 213t-59 303z" />
<glyph unicode="P" horiz-adv-x="1660" d="M274 -33h111v598h354q217 0 374 31t258.5 91.5t149.5 146t48 196.5q0 104 -45 189.5t-141.5 143.5t-246 90t-356.5 32h-506v-1518zM385 670v710h412q193 0 320.5 -29.5t203.5 -77.5t106.5 -111.5t30.5 -131.5q0 -76 -32.5 -141.5t-115.5 -114.5t-222.5 -76.5 t-352.5 -27.5h-350z" />
<glyph unicode="Q" horiz-adv-x="1925" d="M131 725q0 -199 69.5 -346.5t185.5 -245.5t266.5 -146t310.5 -48q35 0 67.5 2t65.5 6q29 -31 69.5 -69t98.5 -77q49 -35 113.5 -51t128.5 -20q29 -2 56 -2q35 0 66 3q58 5 94 15l-51 92q-27 -6 -73 -7h-15q-39 0 -81 4q-50 5 -100 17.5t-85 36.5q-43 29 -100 80 q121 31 226 94.5t183 157.5t123 220t45 284q0 199 -69.5 347.5t-185.5 246.5t-266.5 146t-309.5 48q-160 0 -310.5 -48t-266.5 -146t-185.5 -245.5t-69.5 -346.5v-2zM242 727q0 174 59 304t158.5 214t229.5 126t272 42h2q141 0 272 -42t230.5 -126t158.5 -214t59 -304 q0 -147 -43 -262t-117.5 -198t-175 -135t-212.5 -73l-66 76q-29 33 -85 84t-128 86q-61 29 -133 38q-59 7 -115 7h-24q-68 -2 -127.5 -12t-96.5 -19q-55 78 -86.5 178.5t-31.5 229.5zM440 227q39 8 86 14.5t97 6.5q49 0 97 -7.5t89 -27.5q37 -18 62.5 -35.5t48 -37t44 -43 t46.5 -52.5q-10 -2 -23 -2h-24q-150 0 -285 46t-238 138z" />
<glyph unicode="R" horiz-adv-x="1656" d="M285 -33h110v631h504l649 -631h154l-664 639q109 12 203 49t164 95.5t109.5 134.5t39.5 168q0 205 -179 318.5t-570 113.5h-520v-1518zM395 702v678h393q211 0 339 -28.5t199 -75.5t94.5 -105.5t23.5 -117.5q0 -66 -33 -128.5t-97.5 -111.5t-161.5 -80t-226 -31h-531z " />
<glyph unicode="S" horiz-adv-x="1617" d="M106 197q106 -123 269.5 -190.5t421.5 -67.5q154 0 282.5 35.5t220.5 99.5q90 59 140.5 141t50.5 180q0 109 -52.5 181.5t-115.5 113.5q-39 25 -82 44.5t-99.5 35.5t-128 33.5t-165.5 38.5q-109 25 -183.5 41t-127 30.5t-87 25.5t-63.5 26q-53 27 -85 72.5t-32 107.5 q0 121 125 190q68 39 177.5 57.5t234.5 18.5q113 0 196.5 -14.5t145 -41t103.5 -65.5t71 -88l96 51q-37 63 -90 112.5t-127 82.5t-171 49t-224 16q-143 0 -260 -20t-205 -68q-98 -49 -140 -123.5t-42 -150.5q0 -106 49 -173t110 -99q27 -14 59 -27.5t81 -28t124.5 -33 t194.5 -45.5q113 -25 189.5 -43t129 -33.5t86.5 -28.5t60 -28q49 -29 93 -80t44 -141q0 -68 -36.5 -128t-102.5 -103q-80 -53 -189.5 -86t-252.5 -33q-229 0 -377 61.5t-229 165.5z" />
<glyph unicode="T" horiz-adv-x="1404" d="M61 1380h598v-1413h111v1413h598v105h-1307v-105z" />
<glyph unicode="U" horiz-adv-x="1705" d="M254 588q0 -184 35 -309t107.5 -201t185 -107.5t268.5 -31.5q158 0 271.5 31.5t187 107.5t108.5 201t35 309v897h-111v-893q0 -152 -21.5 -257.5t-76.5 -171t-150.5 -94t-242.5 -28.5q-143 0 -236.5 28.5t-148.5 94t-77.5 171t-22.5 257.5v893h-111v-897z" />
<glyph unicode="V" horiz-adv-x="1542" d="M31 1485l704 -1518h82l705 1518h-117l-338 -725q-74 -162 -145.5 -317.5t-145.5 -321.5q-72 164 -144.5 321.5t-146.5 317.5l-338 725h-116z" />
<glyph unicode="W" horiz-adv-x="2478" d="M35 1485l596 -1518h86l282 721q61 158 123 314.5t121 316.5q61 -162 122.5 -318.5t123.5 -314.5l283 -719h86l596 1518h-115l-283 -719q-59 -156 -119.5 -312.5t-121.5 -322.5q-59 166 -121 322.5t-123 312.5l-283 719h-88l-282 -721q-59 -156 -121 -311.5t-123 -321.5 q-59 164 -119.5 320.5t-122.5 312.5l-282 721h-115z" />
<glyph unicode="X" horiz-adv-x="1650" d="M80 -33h139l606 711l607 -711h139l-678 789l627 729h-142l-553 -649l-553 649h-141l627 -729z" />
<glyph unicode="Y" horiz-adv-x="1433" d="M6 1485l656 -871v-647h110v647l655 871h-133l-305 -406q-68 -92 -135.5 -182l-136.5 -182q-68 92 -136.5 181t-136.5 181l-305 408h-133z" />
<glyph unicode="Z" horiz-adv-x="1423" d="M143 -33h1162v105h-1012l975 1331v82h-1055v-105h907l-977 -1331v-82z" />
<glyph unicode="[" horiz-adv-x="980" d="M383 -352h381v100h-275v1698h275v100h-381v-1898z" />
<glyph unicode="\" horiz-adv-x="1482" d="M117 1546l1116 -1603h125l-1118 1603h-123z" />
<glyph unicode="]" horiz-adv-x="980" d="M217 -252v-100h381v1898h-381v-100h275v-1698h-275z" />
<glyph unicode="^" horiz-adv-x="1638" d="M315 616h113l393 725l393 -725h113l-471 861h-70z" />
<glyph unicode="_" horiz-adv-x="1638" d="M-33 -483v-127h1704v127h-1704z" />
<glyph unicode="`" d="M94 1436l418 -297h137l-364 297h-191z" />
<glyph unicode="a" horiz-adv-x="1337" d="M100 276q0 -61 26 -121.5t84 -107.5t154.5 -75.5t237.5 -28.5q39 0 93.5 6t112.5 23.5t117.5 46t110.5 73.5q12 -57 70 -125h135l-61 70q-16 18 -25.5 31.5t-13.5 30t-5 39t-1 59.5v573q0 186 -113 281.5t-367 95.5q-57 0 -107 -5t-87 -10.5t-59 -10.5l-21 -5l10 -104 l63 18q62 17 199 17q111 0 182.5 -17.5t114.5 -53.5t60.5 -90.5t17.5 -125.5v-23q-219 -18 -392 -48t-292 -81t-181.5 -131t-62.5 -201zM207 279q0 86 48 145t148.5 100t256 67.5t368.5 45.5v-416q-49 -59 -107.5 -94t-117 -53.5t-110.5 -24.5t-87 -6q-127 0 -204.5 23.5 t-120.5 58.5t-58.5 77t-15.5 77z" />
<glyph unicode="b" horiz-adv-x="1503" d="M213 -33h106l-2 137l19 -12q20 -16 45 -33.5t53 -33.5q61 -35 142 -58.5t192 -23.5q156 0 272.5 51t195.5 135t118 192.5t39 223.5q0 129 -44 238.5t-125 190.5t-196 127t-256 46q-123 0 -238.5 -37t-214.5 -121v533h-106v-1555zM319 233v623q104 106 216 148.5t235 42.5 t219 -39t163 -108t100.5 -160t33.5 -195q0 -98 -33.5 -189.5t-98 -161t-162 -110.5t-222.5 -41q-100 0 -175 23.5t-130 56.5q-29 16 -51.5 32.5t-42.5 32.5q-16 12 -28.5 23.5t-23.5 21.5z" />
<glyph unicode="c" horiz-adv-x="1378" d="M111 545q0 -158 54 -271.5t143 -187.5t205 -108.5t239 -34.5q111 0 196.5 22.5t151 62.5t115 93.5t88.5 114.5l-97 49q-33 -53 -73.5 -97.5t-94 -76t-124 -50t-162.5 -18.5q-102 0 -197.5 28.5t-171.5 90t-121 156t-45 227.5q0 127 46 221t121 156.5t171 93.5t197 31 q82 0 144 -13.5t113.5 -39t92.5 -64.5t78 -88l92 53q-47 61 -99.5 108.5t-115 79t-137 48t-168.5 16.5q-119 0 -234 -36t-206 -110.5t-146 -188.5t-55 -267z" />
<glyph unicode="d" horiz-adv-x="1503" d="M111 545q0 -115 38.5 -223.5t117.5 -192.5t196 -135t272 -51q115 0 200 26.5t144 61.5q66 39 99 69l12 9q-2 -27 -4 -62t-2 -55v-25h106v1555h-106v-533q-98 84 -214 121t-239 37q-141 0 -256 -46t-195.5 -127t-124.5 -190.5t-44 -238.5zM217 545q0 104 34 195t100.5 160 t162.5 108t219 39t234.5 -42t216.5 -149v-623q-12 -10 -27.5 -23t-32.5 -28q-20 -16 -42.5 -32.5t-51.5 -32.5q-55 -31 -127 -52.5t-168 -21.5h-2q-127 0 -223 41t-160.5 110.5t-98.5 160.5t-34 190z" />
<glyph unicode="e" horiz-adv-x="1396" d="M111 559q0 -154 46 -264.5t126 -188.5q92 -86 208.5 -124.5t239.5 -38.5q82 0 182.5 17t187.5 38.5t145 39.5l59 17l-7 97q-16 -4 -74.5 -21.5t-140.5 -37t-176 -35t-180 -15.5q-84 0 -171 24.5t-160.5 80t-123 146.5t-55.5 224h1096q0 154 -43 262.5t-115 184.5 q-86 90 -194.5 136t-229.5 46q-137 0 -244.5 -41t-191.5 -113q-88 -78 -136 -187.5t-48 -246.5zM219 621q6 86 45 163.5t106.5 136t159 92.5t201.5 34q98 0 180 -35t143.5 -94.5t98.5 -136t47 -160.5h-981z" />
<glyph unicode="f" horiz-adv-x="1206" d="M76 1020h268v-1565h107v1565h663v102h-663v111q0 90 34.5 148.5t92 93t129 48t155.5 13.5q72 0 136.5 -10t117.5 -29q47 -16 85 -39.5t79 -71.5l61 95q-59 47 -103 71.5t-87 40.5q-66 25 -137.5 34t-151.5 9q-104 0 -191 -18.5t-153 -58.5q-86 -51 -130 -134.5 t-44 -189.5v-113h-268v-102z" />
<glyph unicode="g" horiz-adv-x="1495" d="M111 537q0 -150 55 -261.5t143 -185.5t198.5 -110.5t223.5 -36.5q82 0 150.5 13t124 35.5t99.5 51.5t81 57v-67q0 -135 -28 -218t-83 -145q-33 -37 -76 -63.5t-89 -43t-94 -23.5t-91 -7q-84 0 -153.5 14.5t-122.5 36.5q-72 33 -122.5 72t-95.5 92l-81 -72 q72 -74 134 -117.5t122 -68.5q72 -31 150.5 -44t170.5 -13q131 0 241.5 44t184.5 124q76 84 107.5 188.5t31.5 243.5v1089h-106l2 -125q-90 74 -195.5 112t-242.5 38q-125 0 -220.5 -28.5t-167 -77t-119.5 -111t-78 -130t-42 -136t-12 -127.5zM217 543v2q0 63 22.5 149 t82 165t164 133.5t268.5 54.5q154 0 257 -50.5t175 -136.5v-629q-35 -35 -78 -68.5t-97.5 -60t-122 -43t-151.5 -16.5q-106 0 -200.5 33t-165 96.5t-112.5 156.5t-42 214z" />
<glyph unicode="h" horiz-adv-x="1476" d="M227 -33h107v862q27 20 61.5 45t72.5 48.5t76 42t70 30.5q139 51 258 52q96 0 153.5 -24t90.5 -56q41 -41 53.5 -91.5t12.5 -109.5v-799h106v801q0 92 -23.5 155.5t-72.5 112.5q-106 111 -315 111q-72 0 -145 -13.5t-148 -43.5q-63 -25 -126 -60t-124 -78v570h-107v-1555 z" />
<glyph unicode="i" horiz-adv-x="573" d="M248 -33h106v1155h-106v-1155zM248 1292h106v230h-106v-230z" />
<glyph unicode="j" horiz-adv-x="573" d="M-631 -399q68 -53 119 -81t102 -46q53 -20 112.5 -30.5t131.5 -10.5q272 0 406 145q51 57 75.5 132t24.5 198v1214h-107v-1216q0 -106 -17 -162.5t-52 -95.5q-31 -35 -70 -57.5t-82 -35t-86 -17.5t-82 -5q-45 0 -77.5 4t-61.5 10q-27 4 -45 11.5t-35 13.5q-27 8 -48 18.5 t-43.5 23.5t-46.5 30.5t-54 42.5zM233 1292h107v230h-107v-230z" />
<glyph unicode="k" horiz-adv-x="1296" d="M213 -33h106v459l195 149l662 -608h153l-729 676l608 479h-168l-391 -307q-82 -66 -164 -131.5t-166 -130.5v235v734h-106v-1555z" />
<glyph unicode="l" horiz-adv-x="573" d="M252 -33h106v1555h-106v-1555z" />
<glyph unicode="m" horiz-adv-x="2140" d="M213 -33h106v871q129 109 248 159q63 29 116.5 39.5t98.5 10.5q115 0 181 -56q33 -29 46 -65.5t13 -89.5v-869h106v873q72 59 134.5 98t119.5 61q59 27 109.5 37.5t95.5 10.5q78 0 123 -19.5t70 -48.5q33 -35 42 -79t9 -91v-842h106v852q0 68 -19.5 126.5t-59.5 103.5 q-45 47 -111 72.5t-158 25.5q-109 0 -237 -49q-57 -23 -116.5 -61t-125.5 -87q-10 31 -31.5 65t-54.5 58q-45 35 -105.5 54.5t-136.5 19.5q-53 0 -109.5 -10.5t-119.5 -36.5q-53 -23 -111.5 -56.5t-124.5 -82.5l2 161h-106v-1155z" />
<glyph unicode="n" horiz-adv-x="1476" d="M213 -33h106v862q27 20 62 45t74 48.5t76.5 42t68.5 30.5q139 51 258 52q98 0 154.5 -24t91.5 -56q39 -41 51 -91.5t12 -109.5v-799h107v801q0 92 -23.5 155.5t-70.5 112.5q-106 111 -318 111q-72 0 -143.5 -13.5t-149.5 -43.5q-125 -51 -256 -142q2 29 3 72t2 70.5 t1 31.5h-106v-1155z" />
<glyph unicode="o" horiz-adv-x="1513" d="M111 545q0 -121 39.5 -229.5t120.5 -191.5t202 -132t285 -49q168 0 289.5 51t200.5 135t117 191.5t38 222.5v2q0 143 -51.5 255.5t-138.5 189.5t-204.5 117t-250.5 40q-135 0 -253 -40t-205 -117t-138 -189.5t-51 -255.5zM217 543q0 117 41 210t113.5 157.5t171 99 t215.5 34.5q115 0 213 -33.5t170.5 -98t113.5 -157.5t41 -212q0 -98 -32.5 -189.5t-99 -160t-168 -110.5t-236.5 -42h-2q-139 0 -240.5 42t-168 110.5t-99.5 159.5t-33 190z" />
<glyph unicode="p" horiz-adv-x="1503" d="M213 -541h106v643q41 -33 87.5 -60.5t87.5 -45.5q86 -37 156.5 -45t121.5 -8q154 0 270.5 52t190.5 130q86 94 123 203.5t37 220.5q0 129 -42 231.5t-114 180.5q-178 186 -465 186q-86 0 -157.5 -14.5t-135.5 -42.5q-49 -23 -89 -48.5t-73 -52.5l2 133h-106v-1663z M319 233v625q92 92 203 139q63 29 125 39.5t125 10.5q129 0 224.5 -42t161 -112t97 -158t31.5 -186q0 -117 -36 -204t-95 -148q-76 -82 -174 -118t-209 -36q-76 0 -136.5 12.5t-107.5 34.5q-43 18 -95 51t-114 92z" />
<glyph unicode="q" horiz-adv-x="1503" d="M111 549q0 -111 36.5 -220.5t122.5 -203.5q74 -78 191 -130t270 -52q51 0 122 8t157 45q41 18 87 46t87 60v-643h106v1663h-106l2 -133q-33 27 -73 52.5t-89 48.5q-63 29 -135 43t-158 14q-287 0 -465 -186q-72 -78 -113.5 -180.5t-41.5 -231.5zM217 549q0 98 32 186 t97 158q66 72 161 113t224 41q63 0 125 -10.5t125 -39.5q111 -47 203 -139v-625q-61 -59 -113.5 -91.5t-95.5 -51.5q-47 -23 -107.5 -35t-136.5 -12q-109 0 -208 37t-177 117q-57 59 -93 147t-36 205z" />
<glyph unicode="r" horiz-adv-x="1150" d="M213 -33h106v883q53 43 109.5 80t116.5 63q66 31 123 42.5t106 11.5q47 0 82 -7.5t64 -19.5q23 -12 46 -30.5t62 -59.5l72 84q-45 39 -73 60.5t-62 37.5q-47 20 -95.5 27.5t-95.5 7.5q-78 0 -144.5 -17.5t-129.5 -46.5q-49 -23 -93.5 -50t-89.5 -60l2 149h-106v-1155z " />
<glyph unicode="s" horiz-adv-x="1335" d="M76 150q63 -57 119.5 -94.5t130.5 -59.5q78 -25 167 -39t193 -14q270 0 418 106q72 51 106.5 108.5t34.5 143.5q0 61 -25.5 117.5t-72.5 93.5q-31 27 -69 45t-90 33.5t-123.5 29t-170.5 29.5q-109 16 -176 28.5t-110 24t-70 23.5t-49 31q-33 25 -44.5 50t-11.5 54 q0 43 23 74t70 55q66 33 155.5 44t188.5 11q180 0 287.5 -48t162.5 -130l82 72q-49 61 -95 96t-99 58q-78 35 -163 45t-175 10q-121 0 -219.5 -15.5t-169.5 -48.5q-72 -35 -113 -90t-41 -133q0 -61 26.5 -108t79.5 -86q31 -23 66 -39.5t84 -28.5t117.5 -24.5t169.5 -26.5 q102 -16 169.5 -28.5t113.5 -25t75 -27.5t51 -34q31 -29 45.5 -65.5t14.5 -71.5q0 -100 -99 -164q-70 -45 -166 -65.5t-196 -20.5q-190 0 -321.5 51t-202.5 131z" />
<glyph unicode="t" horiz-adv-x="1384" d="M39 1020h340v-651q0 -139 54 -223.5t135 -129.5t174.5 -59t170.5 -14q145 0 265 44t202 91l-47 94q-80 -43 -186.5 -86t-228.5 -43q-78 0 -156 13.5t-139.5 48t-99.5 98t-38 166.5v651h760v102h-760v332h-106v-332h-340v-102z" />
<glyph unicode="u" horiz-adv-x="1476" d="M203 322q0 -92 23.5 -156t70.5 -113q105 -110 313 -110h4q137 0 293 59q66 27 126.5 61.5t129.5 81.5q-2 -23 -3 -53.5t-2 -58t-1 -45.5v-21h107v1155h-107v-862q-76 -57 -149.5 -98t-130.5 -64q-68 -29 -133.5 -42t-125.5 -13q-100 0 -157.5 25.5t-85.5 54.5 q-41 39 -53.5 89t-12.5 112v798h-106v-800z" />
<glyph unicode="v" horiz-adv-x="1368" d="M16 1122l627 -1155h80l629 1155h-119l-291 -544q-66 -121 -129 -240t-129 -242q-63 117 -126.5 236t-129.5 241l-291 549h-121z" />
<glyph unicode="w" horiz-adv-x="2547" d="M16 1122l625 -1155h84l293 543q66 119 127 234.5t125 236.5q66 -121 129 -237.5t129 -237.5l293 -539h86l624 1155h-118l-291 -540q-66 -121 -129.5 -240t-128.5 -242q-66 121 -130.5 239t-129.5 241l-295 542h-76q-141 -262 -277.5 -514t-271.5 -508q-66 123 -130.5 242 t-129.5 242l-289 538h-119z" />
<glyph unicode="x" horiz-adv-x="1284" d="M94 14v-47h96l451 525l453 -525h96v47l-479 553l434 508v47h-94l-410 -477l-408 477h-96v-47l438 -508z" />
<glyph unicode="y" horiz-adv-x="1353" d="M-29 -477q47 -27 78 -42.5t70 -25.5q35 -10 74.5 -16t93.5 -6q109 0 184.5 32.5t128.5 79.5q53 49 86 104.5t53 102.5l592 1370h-114l-224 -522q-49 -115 -99 -233.5t-101 -239.5q-158 250 -313.5 497.5t-311.5 497.5h-125l698 -1108l-100 -227q-43 -102 -111 -166 q-88 -88 -243 -88q-41 0 -74 5t-61 13q-31 10 -60 25.5t-65 38.5z" />
<glyph unicode="z" horiz-adv-x="1236" d="M96 -33h1100v103h-942l909 966v86h-1024v-102h869l-912 -967v-86z" />
<glyph unicode="{" horiz-adv-x="950" d="M184 551q78 -10 114 -23.5t58 -38.5q23 -27 37.5 -65.5t14.5 -128.5v-295q0 -174 86 -260q47 -47 116.5 -67.5t173.5 -26.5v98q-86 4 -135 19.5t-80 43.5q-25 23 -40 66t-15 123v321q0 86 -19.5 141.5t-54.5 96.5q-25 25 -55 43q29 14 55 41q35 41 54.5 96.5t19.5 141.5 v321q0 78 16.5 122t40.5 69q23 23 75 40t138 21v98q-104 -6 -173.5 -26.5t-116.5 -67.5q-86 -86 -86 -260v-295q0 -90 -14.5 -129t-37.5 -65q-23 -25 -58.5 -38.5t-113.5 -23.5v-92z" />
<glyph unicode="|" horiz-adv-x="1214" d="M557 -545h102v2114h-102v-2114z" />
<glyph unicode="}" horiz-adv-x="950" d="M166 -256v-98q104 6 174 26.5t117 67.5q86 86 86 260v295q0 90 14 129t37 65q23 25 58.5 38.5t113.5 23.5v92q-78 10 -114 23.5t-58 38.5q-23 27 -37 65.5t-14 128.5v295q0 174 -86 260q-47 47 -117 67.5t-174 26.5v-98q86 -4 138 -21.5t75 -39.5q25 -25 41 -69t16 -122 v-321q0 -86 19.5 -141.5t54.5 -96.5q25 -25 55 -43q-29 -14 -55 -41q-35 -41 -54.5 -96.5t-19.5 -141.5v-321q0 -80 -15 -123t-40 -66q-31 -29 -80 -44t-135 -19z" />
<glyph unicode="~" horiz-adv-x="1638" d="M211 494l94 -50q37 39 84 63.5t135 24.5q45 0 96.5 -6t116.5 -22l131 -35q43 -12 105.5 -23.5t144.5 -11.5q119 0 188.5 41t120.5 100l-94 50q-37 -39 -84 -63.5t-135 -24.5q-45 0 -96 6t-117 22l-131 35q-43 12 -105.5 23.5t-144.5 11.5q-119 0 -188.5 -41t-120.5 -100z " />
<glyph unicode="&#xa1;" horiz-adv-x="655" d="M274 -487h107l-6 1198h-94zM274 801h107v229h-107v-229z" />
<glyph unicode="&#xa2;" horiz-adv-x="1744" d="M229 713q0 -131 41 -237.5t117 -183.5t181.5 -124t234.5 -57v-144h102v142q178 6 303.5 73.5t223.5 196.5l-89 59q-78 -109 -184 -166t-254 -63v1005q135 -8 243.5 -64t170.5 -136l88 61q-193 223 -502 238v137h-102v-139q-133 -12 -238.5 -60.5t-180.5 -127.5t-115 -183 t-40 -227zM336 713q0 205 123 337t344 158v-993q-104 12 -190.5 49t-148 100.5t-95 150.5t-33.5 198z" />
<glyph unicode="&#xa3;" horiz-adv-x="1744" d="M227 674h273q25 -63 43 -129t18 -146q0 -117 -65.5 -201.5t-196.5 -150.5l45 -86q33 12 61.5 19.5t58.5 12.5t62.5 6t73.5 1q74 0 142.5 -7t135 -15.5t133 -15.5t138.5 -7q166 0 262 34t164 97l-74 68q-37 -29 -71.5 -47.5t-75.5 -29.5t-91.5 -16.5t-113.5 -5.5 q-84 0 -147.5 7.5t-125 15.5t-127 15t-149.5 7h-31q-12 0 -24 -2q59 59 89 133t30 168q0 80 -14.5 147.5t-37.5 127.5h543v100h-582q-29 72 -51 138.5t-22 144.5q0 70 22.5 128t70.5 99t125 63.5t187 22.5q133 0 221 -40t152 -132l88 51q-86 127 -202.5 174t-262.5 47 q-127 0 -222 -30.5t-157.5 -83.5t-93.5 -129t-31 -164q0 -80 17.5 -148.5t46.5 -140.5h-234v-100z" />
<glyph unicode="&#xa5;" horiz-adv-x="1732" d="M184 1450l627 -834h-565v-100h567v-141h-567v-101h567v-307h107v307h563v101h-563v141h563v100h-561l626 834h-133l-293 -389q-63 -86 -126.5 -172t-129.5 -178q-63 90 -127.5 176l-130.5 174l-291 389h-133z" />
<glyph unicode="&#xa6;" horiz-adv-x="1214" d="M557 391v-782h102v782h-102zM557 633h102v782h-102v-782z" />
<glyph unicode="&#xa7;" horiz-adv-x="1593" d="M215 752q0 -86 41 -142.5t111.5 -94.5t168 -63.5t207.5 -48.5q59 -12 120 -25t114 -29.5t97 -35t73 -41.5q43 -33 63.5 -66.5t20.5 -88.5q0 -63 -33 -116.5t-90 -92.5q-66 -45 -148.5 -65.5t-181.5 -20.5q-96 0 -169.5 14t-130 41t-98.5 60.5t-75 74.5l-86 -63 q31 -37 77 -78t112.5 -74t157.5 -54.5t212 -21.5q111 0 213.5 25t190.5 90q66 47 110.5 115.5t44.5 159.5q0 66 -18.5 108.5t-40.5 71.5q66 49 107.5 116.5t41.5 139.5q0 100 -42 164.5t-113.5 106.5t-171 69.5t-211.5 54.5q-119 27 -219.5 52.5t-143.5 45.5 q-61 29 -87.5 66t-26.5 92q0 63 40 105.5t102 67t140 33.5t154 9q63 0 125.5 -8t117 -29.5t96.5 -59.5t66 -95l97 49q-35 74 -90.5 121t-123 74.5t-142 37.5t-148.5 10q-104 0 -201.5 -14t-177.5 -55q-63 -31 -112.5 -91.5t-49.5 -152.5q0 -53 19.5 -105.5t64.5 -93.5 q-29 -14 -58.5 -34.5t-56 -51t-43 -71.5t-16.5 -92zM322 743v2q0 139 172 195q80 -29 158.5 -50.5t153.5 -37.5t143.5 -31.5t127.5 -34.5q119 -35 181.5 -87t62.5 -148q0 -55 -32 -107.5t-81 -87.5q-47 35 -108.5 58.5t-126.5 40.5q-74 20 -152 35.5t-153 31.5 q-80 18 -143.5 38t-108.5 46.5t-69.5 59t-24.5 77.5z" />
<glyph unicode="&#xa8;" d="M227 1221h103v223h-103v-223zM694 1221h103v223h-103v-223z" />
<glyph unicode="&#xa9;" horiz-adv-x="2064" d="M244 727q0 -164 61.5 -307.5t169 -251t249.5 -168.5t306 -61q162 0 305.5 61t251 168.5t169 251t61.5 307.5q0 162 -61.5 305.5t-168 251t-250 168.5t-305.5 61h-2q-164 0 -306 -61t-249.5 -168.5t-169 -251t-61.5 -305.5zM348 727q0 141 54.5 266t146.5 218.5t216 147.5 t265 54h2q141 0 266 -54t217.5 -147.5t146.5 -218.5t54 -266t-54 -267t-146.5 -219.5t-217 -147.5t-266.5 -54q-141 0 -266 54t-217 147.5t-146.5 219.5t-54.5 267zM580 731q0 -236 139 -371q66 -66 152.5 -102.5t191.5 -36.5q51 0 102.5 10.5t81.5 24.5q41 18 81 44t87 75 l-69 76q-66 -76 -136 -101q-29 -12 -65.5 -20t-85.5 -8q-70 0 -138.5 22.5t-127.5 85.5q-61 63 -84 139t-23 162q0 113 31 182.5t71 110.5q59 59 128 86t143 27q25 0 42 -1t32.5 -4.5t30 -7.5t34.5 -10q25 -10 57.5 -29.5t73.5 -58.5l70 76q-53 47 -86 67.5t-74 36.5 q-43 16 -86 23.5t-90 7.5q-104 0 -190.5 -37t-153.5 -100q-70 -66 -104.5 -161t-34.5 -208z" />
<glyph unicode="&#xaa;" horiz-adv-x="931" d="M127 946q0 -68 34 -108.5t81 -62t100 -29t90 -7.5q57 0 127 17.5t129 58.5q6 -16 6 -31q0 -14 21 -30h108q-8 20 -16 33.5t-14.5 25.5t-10.5 25.5t-4 33.5v291v56t-2 53q-4 27 -10 53.5t-23 50.5q-31 49 -94 75t-174 26q-104 0 -173 -28t-95.5 -52.5t-28.5 -28.5l21 -70 l19 12q20 13 56.5 28.5t89 27.5t117.5 12q82 0 120 -17.5t54 -37.5q14 -20 17.5 -43t3.5 -45q-139 -12 -242.5 -31.5t-171 -53.5t-101.5 -83t-34 -121zM229 950q0 33 19.5 62.5t71 53.5t137.5 42t219 29v-209q-106 -90 -258 -90q-33 0 -67 5t-60.5 18t-44 35t-17.5 54z" />
<glyph unicode="&#xab;" horiz-adv-x="1118" d="M137 494l463 -447v137l-326 326l326 326v137l-463 -447v-32zM473 494l463 -447v137l-326 326l326 326v137l-463 -447v-32z" />
<glyph unicode="&#xac;" horiz-adv-x="1638" d="M262 600h1012v-307h102v405h-1114v-98z" />
<glyph unicode="&#xad;" horiz-adv-x="817" d="M-2 637h645v102h-645v-102z" />
<glyph unicode="&#xae;" horiz-adv-x="2064" d="M246 727q0 -164 61.5 -307.5t169 -251t249.5 -168.5t306 -61q162 0 305.5 61t251 168.5t169 251t61.5 307.5q0 162 -61.5 305.5t-168 251t-250 168.5t-305.5 61h-2q-164 0 -306 -61t-249.5 -168.5t-169 -251t-61.5 -305.5zM350 727q0 141 54.5 266t146.5 218.5t216 147.5 t265 54h2q141 0 266 -54t217.5 -147.5t146.5 -218.5t54 -266t-54 -267t-146.5 -219.5t-217 -147.5t-266.5 -54q-141 0 -266 54t-217 147.5t-146.5 219.5t-54.5 267zM737 225h107v432h184l371 -432h137l-381 443q37 8 78 27.5t77 53t59.5 84t23.5 121.5q0 57 -20.5 110.5 t-74.5 94.5q-51 39 -133 61.5t-202 22.5h-226v-1018zM844 758v385h119q154 0 238.5 -42t84.5 -155q0 -78 -60.5 -133t-189.5 -55h-192z" />
<glyph unicode="&#xaf;" d="M213 1278h598v102h-598v-102z" />
<glyph unicode="&#xb0;" horiz-adv-x="1036" d="M233 1192q0 -59 23 -111.5t60.5 -90.5t90 -60.5t111.5 -22.5t111.5 22.5t90.5 60.5t60.5 90.5t22.5 111.5t-22.5 111.5t-60.5 90.5t-90 60.5t-110 22.5h-2q-59 0 -111.5 -22.5t-90 -60.5t-60.5 -90.5t-23 -111.5zM342 1192q0 37 14.5 69.5t38 56t55 38t68.5 14.5h2 q74 0 126 -52t52 -126t-52 -126t-126 -52t-126 52t-52 126z" />
<glyph unicode="&#xb1;" horiz-adv-x="1638" d="M262 -33h1114v99h-1114v-99zM262 469h506v-371h102v371h506v98h-506v379h-102v-379h-506v-98z" />
<glyph unicode="&#xb2;" horiz-adv-x="1112" d="M137 588l49 -41h766v102h-682q61 100 160.5 158.5t208.5 107.5q57 27 112.5 54.5t98.5 62.5t68.5 80t25.5 107q0 68 -29.5 115.5t-82 79.5t-123 47.5t-150.5 15.5q-172 0 -264 -67t-125 -181l102 -17q8 29 25.5 58.5t48.5 53.5t80 38t125 14q160 0 225.5 -47t65.5 -108 q0 -41 -19.5 -71t-56.5 -58q-20 -14 -43 -26.5t-49 -25.5q-27 -14 -54.5 -26.5t-56.5 -26.5q-59 -27 -121.5 -59.5t-120 -78.5t-105.5 -109.5t-79 -151.5z" />
<glyph unicode="&#xb3;" horiz-adv-x="1112" d="M133 788q59 -145 161.5 -202.5t256.5 -57.5q188 0 288.5 73t100.5 198q0 51 -15.5 90t-41 68.5t-59 49t-68.5 31.5q66 27 101.5 78t35.5 131q0 31 -12.5 71t-49 76t-103 59.5t-177.5 23.5q-143 0 -241.5 -51.5t-131.5 -190.5l98 -23q27 92 88.5 128t188.5 36 q86 0 133 -16.5t70.5 -40t29 -47t5.5 -35.5q0 -29 -17.5 -57.5t-58.5 -50t-106.5 -35t-162.5 -13.5v-96q205 0 298.5 -46t93.5 -130q0 -74 -61.5 -127t-211.5 -53q-72 0 -125 11t-92 33.5t-66.5 57.5t-48.5 84z" />
<glyph unicode="&#xb4;" d="M375 1139h137l418 297h-191z" />
<glyph unicode="&#xb5;" horiz-adv-x="1476" d="M203 -541h106v584q106 -100 305 -100q137 0 293 59q66 27 126.5 61.5t129.5 81.5q-2 -23 -3 -53.5t-2 -58t-1 -45.5v-21h107v1155h-107v-862q-76 -57 -149.5 -98t-130.5 -64q-68 -29 -133.5 -42t-125.5 -13q-100 0 -157.5 25.5t-87.5 54.5q-41 41 -52.5 90t-11.5 111v798 h-106v-1663z" />
<glyph unicode="&#xb6;" horiz-adv-x="1339" d="M80 1053q0 -123 46 -206t122 -134q70 -47 154.5 -67.5t177.5 -24.5v-1129h102v1892h254v-1892h102v1993h-465q-115 0 -204.5 -31t-155.5 -88q-63 -57 -98 -137t-35 -176z" />
<glyph unicode="&#xb7;" horiz-adv-x="532" d="M197 518q0 -29 20.5 -49t48.5 -20q29 0 49.5 20t20.5 49t-19.5 49.5t-48.5 20.5h-2q-29 0 -49 -20.5t-20 -49.5z" />
<glyph unicode="&#xb8;" d="M256 -330q53 -27 109.5 -44t128.5 -17q49 0 94 9t79.5 28.5t56 50.5t21.5 74t-18 70.5t-46 45t-61.5 24.5t-64.5 9l88 113h-127l-143 -185l71 -38q23 6 57 12t65.5 4t54 -13.5t22.5 -41.5q0 -20 -14.5 -32.5t-36 -19t-48 -8.5t-50.5 -2q-49 0 -90.5 10.5t-88.5 32.5z" />
<glyph unicode="&#xb9;" horiz-adv-x="1112" d="M313 1343l37 -92l199 92v-796h102v921h-57z" />
<glyph unicode="&#xba;" horiz-adv-x="950" d="M78 1108q0 -84 29.5 -152.5t84 -116.5t127 -74t158.5 -26t160 26t128 74t84 116.5t30 152.5t-30 152.5t-84 116.5t-128 74t-160 26t-158.5 -26t-127 -74t-84 -115.5t-29.5 -151.5v-2zM180 1110q0 121 79 195.5t216 74.5h2q141 0 220 -74.5t79 -195.5t-79 -195.5 t-220 -74.5q-139 0 -218 74.5t-79 195.5z" />
<glyph unicode="&#xbb;" horiz-adv-x="1118" d="M182 47l463 447v32l-463 447v-137l326 -326l-326 -326v-137zM518 47l463 447v32l-463 447v-137l326 -326l-326 -326v-137z" />
<glyph unicode="&#xbc;" horiz-adv-x="2377" d="M313 1343l37 -92l199 92v-796h102v921h-57zM338 -57h133l1303 1534h-132zM1268 207h559v-240h102v240h193v98h-193v582h-84l-577 -613v-67zM1432 305l190 201q51 53 102.5 108.5t102.5 110.5v-199v-221h-395z" />
<glyph unicode="&#xbd;" horiz-adv-x="2377" d="M291 -57h133l1302 1534h-131zM297 1393l29 -97l184 56v-805h102v921h-55zM1329 8l49 -41h766v103h-682q61 100 160.5 158.5t208.5 107.5q57 27 112.5 54.5t98.5 62t68.5 80t25.5 106.5q0 68 -29.5 116t-82 79.5t-123 47t-150.5 15.5q-172 0 -264 -66.5t-125 -181.5 l102 -16q8 29 25.5 58.5t48.5 53t80 38t125 14.5q160 0 225.5 -47.5t65.5 -108.5q0 -41 -19.5 -70.5t-56.5 -58.5q-20 -14 -43 -26.5t-49 -24.5q-27 -14 -54.5 -26.5t-56.5 -26.5q-59 -27 -121.5 -60t-120 -79t-105.5 -109.5t-79 -151.5z" />
<glyph unicode="&#xbe;" horiz-adv-x="2551" d="M133 788q59 -145 161.5 -202.5t256.5 -57.5q188 0 288.5 73t100.5 198q0 51 -15.5 90t-41 68.5t-59 49t-68.5 31.5q66 27 101.5 78t35.5 131q0 31 -12.5 71t-49 76t-103 59.5t-177.5 23.5q-143 0 -241.5 -51.5t-131.5 -190.5l98 -23q27 92 88.5 128t188.5 36 q86 0 133 -16.5t70.5 -40t29 -47t5.5 -35.5q0 -29 -17.5 -57.5t-58.5 -50t-106.5 -35t-162.5 -13.5v-96q205 0 298.5 -46t93.5 -130q0 -74 -61.5 -127t-211.5 -53q-72 0 -125 11t-92 33.5t-66.5 57.5t-48.5 84zM545 -57h133l1302 1534h-131zM1442 207h559v-240h102v240h193 v98h-193v582h-84l-577 -613v-67zM1606 305l190 201q51 53 102.5 108.5t102.5 110.5v-199v-221h-395z" />
<glyph unicode="&#xbf;" horiz-adv-x="1202" d="M2 -133q0 -109 49 -179.5t130 -111.5t185.5 -58.5t215.5 -17.5q139 0 243.5 22.5t181 63.5t129 101.5t87.5 134.5l-99 37q-59 -121 -185 -189.5t-349 -68.5q-102 0 -190.5 14t-153 45t-101 81t-36.5 122q0 51 12 91t39.5 74.5t75 65.5t116.5 66q111 53 181.5 103 t110.5 112.5t54.5 142.5t8.5 193h-95q2 -88 -7 -152.5t-39.5 -116t-89 -95.5t-157.5 -91q-86 -41 -145 -81t-98 -86t-56.5 -100.5t-17.5 -121.5zM602 801h107v229h-107v-229z" />
<glyph unicode="&#xc0;" horiz-adv-x="1415" d="M0 -33h119l225 506h723l227 -506h121l-674 1518h-69zM303 1767l492 -249h174l-408 249h-258zM391 578l166 383l74 172t76 178q39 -94 77.5 -182.5t75.5 -176.5l162 -374h-631z" />
<glyph unicode="&#xc1;" horiz-adv-x="1415" d="M0 -33h119l225 506h723l227 -506h121l-674 1518h-69zM391 578l166 383l74 172t76 178q39 -94 77.5 -182.5t75.5 -176.5l162 -374h-631zM457 1538h174l491 250h-258z" />
<glyph unicode="&#xc2;" horiz-adv-x="1415" d="M0 -33h119l225 506h723l227 -506h121l-674 1518h-69zM248 1522h196l265 90l6 -2l28 -11l93 -30l137 -47h196l-452 202h-17zM391 578l166 383l74 172t76 178q39 -94 77.5 -182.5t75.5 -176.5l162 -374h-631z" />
<glyph unicode="&#xc3;" horiz-adv-x="1415" d="M0 -33h119l225 506h723l227 -506h121l-674 1518h-69zM352 1604l72 -72q39 47 68.5 58.5t70.5 11.5q31 0 60.5 -5.5t44.5 -9.5l45 -14q41 -12 74.5 -16.5t60.5 -4.5q59 0 111.5 22t103.5 81l-72 71q-39 -47 -70.5 -59t-72.5 -12q-31 0 -60.5 5t-44.5 9l-45 14 q-39 12 -73.5 16.5t-61.5 4.5q-57 0 -108.5 -20.5t-102.5 -79.5zM391 578l166 383l74 172t76 178q39 -94 77.5 -182.5t75.5 -176.5l162 -374h-631z" />
<glyph unicode="&#xc4;" horiz-adv-x="1415" d="M0 -33h119l225 506h723l227 -506h121l-674 1518h-69zM391 578l166 383l74 172t76 178q39 -94 77.5 -182.5t75.5 -176.5l162 -374h-631zM420 1497h102v213h-102v-213zM895 1497h102v213h-102v-213z" />
<glyph unicode="&#xc5;" horiz-adv-x="1415" d="M0 -33h119l225 506h723l227 -506h121l-651 1469q53 14 94 51t41 102q0 41 -17.5 71t-45 50.5t-61.5 29.5t-66 9q-33 0 -67 -9t-61.5 -29.5t-45 -50.5t-17.5 -71q0 -63 40 -101t91 -50zM391 578l166 383l74 172t76 178q39 -94 77.5 -182.5t75.5 -176.5l162 -374h-631z M621 1589q0 23 21.5 41.5t64.5 18.5t64.5 -18.5t21.5 -41.5q0 -20 -17.5 -39.5t-66.5 -19.5h-2q-51 0 -68.5 20.5t-17.5 38.5z" />
<glyph unicode="&#xc6;" horiz-adv-x="2293" d="M-88 -33h133l395 506h656v-506h1046v105h-936v635h738v104h-738v569h908v105h-1020zM520 578l299 385q70 92 138.5 180t138.5 182v-346v-401h-576z" />
<glyph unicode="&#xc7;" horiz-adv-x="1728" d="M131 727q0 -180 64.5 -327.5t181.5 -258.5q82 -78 208 -132t285 -68l-88 -119l70 -39q115 23 170 2t55 -53q0 -8 -6 -20.5t-25.5 -24t-54.5 -19.5t-90 -8t-101 11.5t-91 31.5l-58 -80q59 -35 121 -49t139 -14q129 0 201 48t72 124q0 45 -19.5 75.5t-51.5 49t-70.5 28 t-77.5 9.5l30 45q117 6 212.5 42.5t172 90t137 118t107.5 127.5l-88 62q-39 -53 -93 -112.5t-127 -110t-163 -83t-201 -32.5q-137 0 -265 42t-227.5 126t-158.5 213t-59 303q0 184 63.5 314t165.5 213t231 121t261 38q94 0 171.5 -22.5t142 -63.5t116 -96t92.5 -119l92 57 q-47 76 -108.5 139.5t-137.5 109.5t-168 71.5t-200 25.5q-180 0 -332 -54t-264 -159q-111 -104 -173.5 -248.5t-62.5 -324.5z" />
<glyph unicode="&#xc8;" horiz-adv-x="1472" d="M250 1788l491 -250h174l-407 250h-258zM274 -33h1047v105h-936v635h737v104h-737v569h907v105h-1018v-1518z" />
<glyph unicode="&#xc9;" horiz-adv-x="1472" d="M274 -33h1047v105h-936v635h737v104h-737v569h907v105h-1018v-1518zM567 1477h174l492 249h-258z" />
<glyph unicode="&#xca;" horiz-adv-x="1472" d="M274 -33h1047v105h-936v635h737v104h-737v569h907v105h-1018v-1518zM276 1522h197l264 90l6 -2l29 -11l92 -30l137 -47h197l-453 202h-16z" />
<glyph unicode="&#xcb;" horiz-adv-x="1472" d="M274 -33h1047v105h-936v635h737v104h-737v569h907v105h-1018v-1518zM489 1538h103v213h-103v-213zM965 1538h102v213h-102v-213z" />
<glyph unicode="&#xcc;" horiz-adv-x="700" d="M-55 1788l491 -250h174l-407 250h-258zM295 -33h111v1518h-111v-1518z" />
<glyph unicode="&#xcd;" horiz-adv-x="700" d="M98 1538h174l492 250h-258zM295 -33h111v1518h-111v-1518z" />
<glyph unicode="&#xce;" horiz-adv-x="700" d="M-111 1522h197l264 90l6 -2l29 -11l92 -30l137 -47h197l-453 202h-16zM295 -33h111v1518h-111v-1518z" />
<glyph unicode="&#xcf;" horiz-adv-x="700" d="M61 1497h103v213h-103v-213zM295 -33h111v1518h-111v-1518zM537 1497h102v213h-102v-213z" />
<glyph unicode="&#xd0;" horiz-adv-x="1804" d="M90 705h184v-738h496q217 0 380 54.5t269.5 152.5t159.5 238.5t53 312.5t-53 312.5t-159.5 239.5t-269.5 153.5t-380 54.5h-496v-676h-184v-104zM385 72v633h518v104h-518v571h389q197 0 339 -48t232.5 -134t133.5 -207t43 -266t-43 -265t-133.5 -206t-232.5 -134 t-339 -48h-389z" />
<glyph unicode="&#xd1;" horiz-adv-x="1851" d="M274 -33h111v821t-2 527q154 -193 424 -526.5t666 -821.5h104v1518h-111v-823q0 -332 2 -525q-152 190 -423 524t-666 824h-105v-1518zM569 1604l72 -72q39 47 68.5 58.5t70.5 11.5q31 0 60.5 -5.5t44.5 -9.5l45 -14q41 -12 74.5 -16.5t60.5 -4.5q59 0 111.5 22t103.5 81 l-72 71q-39 -47 -70.5 -59t-72.5 -12q-31 0 -60.5 5t-43.5 9l-46 14q-39 12 -73.5 16.5t-61.5 4.5q-57 0 -108 -20.5t-103 -79.5z" />
<glyph unicode="&#xd2;" horiz-adv-x="1925" d="M131 725q0 -199 69.5 -346.5t185.5 -245.5t266.5 -146t310.5 -48t310 48t266 146t185.5 245.5t69.5 346.5q0 178 -56.5 316.5t-152.5 235.5t-222 153.5t-267 74.5l-365 224h-258l426 -218q-152 -8 -291 -60t-244.5 -150.5t-169 -240.5t-63.5 -333v-2zM242 727 q0 174 59 304t158.5 214t229.5 126t272 42h2q141 0 272 -42t230.5 -126t158.5 -214t59 -304t-59 -303t-158.5 -213t-230.5 -126t-272 -42t-272.5 42t-231 126t-158.5 213t-59 303z" />
<glyph unicode="&#xd3;" horiz-adv-x="1925" d="M131 731q0 -199 69.5 -346t185.5 -245.5t266.5 -146.5t310.5 -48t310 48t266 146.5t185.5 245.5t69.5 346q0 190 -62.5 332.5t-169 241t-244.5 150.5t-290 63l428 217h-258l-362 -224q-141 -16 -269.5 -73.5t-225.5 -153.5t-153.5 -234.5t-56.5 -316.5v-2zM242 727 q0 174 59 304t158.5 214t229.5 126t272 42h2q141 0 272 -42t230.5 -126t158.5 -214t59 -304t-59 -303t-158.5 -213t-230.5 -126t-272 -42t-272.5 42t-231 126t-158.5 213t-59 303z" />
<glyph unicode="&#xd4;" horiz-adv-x="1925" d="M131 725q0 -199 69.5 -346.5t185.5 -245.5t266.5 -146t310.5 -48t310 48t266 146t185.5 245.5t69.5 346.5t-69.5 347.5t-185.5 246.5t-266.5 146t-309.5 48q-160 0 -310.5 -48t-266.5 -146t-185.5 -245.5t-69.5 -346.5v-2zM242 727q0 174 59 304t158.5 214t229.5 126 t272 42h2q141 0 272 -42t230.5 -126t158.5 -214t59 -304t-59 -303t-158.5 -213t-230.5 -126t-272 -42t-272.5 42t-231 126t-158.5 213t-59 303zM500 1524h196l265 90l6 -2l28 -10l92 -31l138 -47h196l-452 202h-17z" />
<glyph unicode="&#xd5;" horiz-adv-x="1925" d="M131 725q0 -199 69.5 -346.5t185.5 -245.5t266.5 -146t310.5 -48t310 48t266 146t185.5 245.5t69.5 346.5t-69.5 347.5t-185.5 246.5t-266.5 146t-309.5 48q-160 0 -310.5 -48t-266.5 -146t-185.5 -245.5t-69.5 -346.5v-2zM242 727q0 174 59 304t158.5 214t229.5 126 t272 42h2q141 0 272 -42t230.5 -126t158.5 -214t59 -304t-59 -303t-158.5 -213t-230.5 -126t-272 -42t-272.5 42t-231 126t-158.5 213t-59 303zM604 1606l72 -72q39 47 68.5 58.5t70.5 11.5q31 0 60.5 -5.5t44.5 -9.5l45 -14q41 -12 74.5 -16.5t60.5 -4.5q59 0 111.5 22 t103.5 81l-72 72q-39 -47 -70.5 -59.5t-72.5 -12.5q-31 0 -60.5 5t-44.5 9l-45 15q-39 12 -73.5 16t-61.5 4q-57 0 -108.5 -20.5t-102.5 -79.5z" />
<glyph unicode="&#xd6;" horiz-adv-x="1925" d="M131 725q0 -199 69.5 -346.5t185.5 -245.5t266.5 -146t310.5 -48t310 48t266 146t185.5 245.5t69.5 346.5t-69.5 347.5t-185.5 246.5t-266.5 146t-309.5 48q-160 0 -310.5 -48t-266.5 -146t-185.5 -245.5t-69.5 -346.5v-2zM242 727q0 174 59 304t158.5 214t229.5 126 t272 42h2q141 0 272 -42t230.5 -126t158.5 -214t59 -304t-59 -303t-158.5 -213t-230.5 -126t-272 -42t-272.5 42t-231 126t-158.5 213t-59 303zM672 1499h102v213h-102v-213zM1147 1499h102v213h-102v-213z" />
<glyph unicode="&#xd7;" horiz-adv-x="1638" d="M297 66l70 -70l452 453l453 -453l69 70l-452 452l452 453l-69 69l-453 -452l-452 452l-70 -69l453 -453z" />
<glyph unicode="&#xd8;" horiz-adv-x="1925" d="M92 4l74 -80l219 209q115 -96 261.5 -145t314.5 -49q162 0 312 48t266 146t185.5 245.5t69.5 346.5q0 92 -15.5 170t-41 142.5t-59 117.5t-68.5 94l223 199l-74 80l-219 -209q-115 96 -261 145t-316 49q-160 0 -310.5 -48t-266.5 -146t-185.5 -246.5t-69.5 -347.5 q0 -92 15.5 -170t41 -142.5t59.5 -116.5t68 -93zM242 725q0 174 59 304t158.5 214t230.5 126t273 42q100 0 186 -18.5t145 -42.5q53 -23 95 -47.5t75 -49.5l-1075 -989q-70 92 -108.5 209t-38.5 252zM461 199l1075 989q70 -92 108.5 -210t38.5 -253q0 -174 -59 -303 t-158.5 -213t-230.5 -126t-272 -42q-100 0 -186.5 17.5t-145.5 43.5q-53 23 -95 47.5t-75 49.5z" />
<glyph unicode="&#xd9;" horiz-adv-x="1705" d="M254 588q0 -184 35 -309t107.5 -201t185 -107.5t268.5 -31.5q158 0 271.5 31.5t187 107.5t108.5 201t35 309v897h-111v-893q0 -152 -21.5 -257.5t-76.5 -171t-150.5 -94t-242.5 -28.5q-143 0 -236.5 28.5t-148.5 94t-77.5 171t-22.5 257.5v893h-111v-897zM367 1726 l491 -249h174l-407 249h-258z" />
<glyph unicode="&#xda;" horiz-adv-x="1705" d="M254 588q0 -184 35 -309t107.5 -201t185 -107.5t268.5 -31.5q158 0 271.5 31.5t187 107.5t108.5 201t35 309v897h-111v-893q0 -152 -21.5 -257.5t-76.5 -171t-150.5 -94t-242.5 -28.5q-143 0 -236.5 28.5t-148.5 94t-77.5 171t-22.5 257.5v893h-111v-897zM684 1477h174 l492 249h-258z" />
<glyph unicode="&#xdb;" horiz-adv-x="1705" d="M254 588q0 -184 35 -309t107.5 -201t185 -107.5t268.5 -31.5q158 0 271.5 31.5t187 107.5t108.5 201t35 309v897h-111v-893q0 -152 -21.5 -257.5t-76.5 -171t-150.5 -94t-242.5 -28.5q-143 0 -236.5 28.5t-148.5 94t-77.5 171t-22.5 257.5v893h-111v-897zM393 1522h197 l264 90l6 -2l29 -11l92 -30l137 -47h197l-453 202h-16z" />
<glyph unicode="&#xdc;" horiz-adv-x="1705" d="M254 588q0 -184 35 -309t107.5 -201t185 -107.5t268.5 -31.5q158 0 271.5 31.5t187 107.5t108.5 201t35 309v897h-111v-893q0 -152 -21.5 -257.5t-76.5 -171t-150.5 -94t-242.5 -28.5q-143 0 -236.5 28.5t-148.5 94t-77.5 171t-22.5 257.5v893h-111v-897zM565 1456h103 v213h-103v-213zM1040 1456h103v213h-103v-213z" />
<glyph unicode="&#xdd;" horiz-adv-x="1433" d="M6 1485l656 -871v-647h110v647l655 871h-133l-305 -406q-68 -92 -135.5 -182l-136.5 -182q-68 92 -136.5 181t-136.5 181l-305 408h-133zM547 1477h174l491 249h-258z" />
<glyph unicode="&#xde;" horiz-adv-x="1660" d="M274 -33h111v348h354q217 0 374 31t258.5 91.5t149.5 146t48 196.5q0 104 -45 189.5t-141.5 143.5t-246 90t-356.5 32h-395v250h-111v-1518zM385 420v710h412q193 0 320.5 -29.5t203.5 -77.5t106.5 -111.5t30.5 -131.5q0 -76 -32.5 -141.5t-115.5 -114.5t-222.5 -76.5 t-352.5 -27.5h-350z" />
<glyph unicode="&#xdf;" horiz-adv-x="1515" d="M213 -524h106v1548q0 80 14.5 172t60.5 171t135 130t239 51q129 0 198.5 -26.5t103.5 -62.5t40 -71.5t6 -52.5q0 -63 -20.5 -123.5t-74.5 -106.5t-148.5 -73.5t-239.5 -27.5h-37v-101h43q180 0 306 -25.5t206 -75.5t116 -126t36 -176q0 -92 -28 -171t-92.5 -137.5 t-170 -91t-260.5 -32.5h-95v-101h97q193 0 318.5 45t200.5 121t105.5 171.5t30.5 197.5q0 113 -34 192.5t-89 135t-125.5 87t-146.5 48.5q63 33 102 75.5t62 75.5q18 27 27 70t14 74q4 23 4 40v29q0 39 -12.5 93.5t-58.5 104.5t-137 86t-247 36q-119 0 -206 -29t-148.5 -77 t-101.5 -111.5t-61.5 -132t-29.5 -139t-8 -132.5v-1552z" />
<glyph unicode="&#xe0;" horiz-adv-x="1337" d="M100 276q0 -61 26 -121.5t84 -107.5t154.5 -75.5t237.5 -28.5q39 0 93.5 6t112.5 23.5t117.5 46t110.5 73.5q12 -57 70 -125h135l-61 70q-16 18 -25.5 31.5t-13.5 30t-5 39t-1 59.5v573q0 186 -113 281.5t-367 95.5q-57 0 -107 -5t-87 -10.5t-59 -10.5l-21 -5l10 -104 l63 18q62 17 199 17q111 0 182.5 -17.5t114.5 -53.5t60.5 -90.5t17.5 -125.5v-23q-219 -18 -392 -48t-292 -81t-181.5 -131t-62.5 -201zM207 279q0 86 48 145t148.5 100t256 67.5t368.5 45.5v-416q-49 -59 -107.5 -94t-117 -53.5t-110.5 -24.5t-87 -6q-127 0 -204.5 23.5 t-120.5 58.5t-58.5 77t-15.5 77zM252 1497l418 -297h137l-365 297h-190z" />
<glyph unicode="&#xe1;" horiz-adv-x="1337" d="M100 276q0 -61 26 -121.5t84 -107.5t154.5 -75.5t237.5 -28.5q39 0 93.5 6t112.5 23.5t117.5 46t110.5 73.5q12 -57 70 -125h135l-61 70q-16 18 -25.5 31.5t-13.5 30t-5 39t-1 59.5v573q0 186 -113 281.5t-367 95.5q-57 0 -107 -5t-87 -10.5t-59 -10.5l-21 -5l10 -104 l63 18q62 17 199 17q111 0 182.5 -17.5t114.5 -53.5t60.5 -90.5t17.5 -125.5v-23q-219 -18 -392 -48t-292 -81t-181.5 -131t-62.5 -201zM207 279q0 86 48 145t148.5 100t256 67.5t368.5 45.5v-416q-49 -59 -107.5 -94t-117 -53.5t-110.5 -24.5t-87 -6q-127 0 -204.5 23.5 t-120.5 58.5t-58.5 77t-15.5 77zM532 1200h138l417 297h-190z" />
<glyph unicode="&#xe2;" horiz-adv-x="1337" d="M100 276q0 -61 26 -121.5t84 -107.5t154.5 -75.5t237.5 -28.5q39 0 93.5 6t112.5 23.5t117.5 46t110.5 73.5q12 -57 70 -125h135l-61 70q-16 18 -25.5 31.5t-13.5 30t-5 39t-1 59.5v573q0 186 -113 281.5t-367 95.5q-57 0 -107 -5t-87 -10.5t-59 -10.5l-21 -5l10 -104 l63 18q62 17 199 17q111 0 182.5 -17.5t114.5 -53.5t60.5 -90.5t17.5 -125.5v-23q-219 -18 -392 -48t-292 -81t-181.5 -131t-62.5 -201zM207 279q0 86 48 145t148.5 100t256 67.5t368.5 45.5v-416q-49 -59 -107.5 -94t-117 -53.5t-110.5 -24.5t-87 -6q-127 0 -204.5 23.5 t-120.5 58.5t-58.5 77t-15.5 77zM274 1178h154l242 131l241 -131h154l-383 254h-25z" />
<glyph unicode="&#xe3;" horiz-adv-x="1337" d="M100 276q0 -61 26 -121.5t84 -107.5t154.5 -75.5t237.5 -28.5q39 0 93.5 6t112.5 23.5t117.5 46t110.5 73.5q12 -57 70 -125h135l-61 70q-16 18 -25.5 31.5t-13.5 30t-5 39t-1 59.5v573q0 186 -113 281.5t-367 95.5q-57 0 -107 -5t-87 -10.5t-59 -10.5l-21 -5l10 -104 l63 18q62 17 199 17q111 0 182.5 -17.5t114.5 -53.5t60.5 -90.5t17.5 -125.5v-23q-219 -18 -392 -48t-292 -81t-181.5 -131t-62.5 -201zM207 279q0 86 48 145t148.5 100t256 67.5t368.5 45.5v-416q-49 -59 -107.5 -94t-117 -53.5t-110.5 -24.5t-87 -6q-127 0 -204.5 23.5 t-120.5 58.5t-58.5 77t-15.5 77zM348 1309l70 -70q37 41 62.5 51t60.5 10q29 0 56.5 -5t41.5 -9l41 -12q35 -10 67.5 -14.5t55.5 -4.5q51 0 98 19t94 76l-69 69q-37 -41 -62.5 -51t-60.5 -10q-29 0 -56.5 5t-41.5 9l-41 12q-35 10 -68 14.5t-55 4.5q-51 0 -98.5 -18.5 t-94.5 -75.5z" />
<glyph unicode="&#xe4;" horiz-adv-x="1337" d="M100 276q0 -61 26 -121.5t84 -107.5t154.5 -75.5t237.5 -28.5q39 0 93.5 6t112.5 23.5t117.5 46t110.5 73.5q12 -57 70 -125h135l-61 70q-16 18 -25.5 31.5t-13.5 30t-5 39t-1 59.5v573q0 186 -113 281.5t-367 95.5q-57 0 -107 -5t-87 -10.5t-59 -10.5l-21 -5l10 -104 l63 18q62 17 199 17q111 0 182.5 -17.5t114.5 -53.5t60.5 -90.5t17.5 -125.5v-23q-219 -18 -392 -48t-292 -81t-181.5 -131t-62.5 -201zM207 279q0 86 48 145t148.5 100t256 67.5t368.5 45.5v-416q-49 -59 -107.5 -94t-117 -53.5t-110.5 -24.5t-87 -6q-127 0 -204.5 23.5 t-120.5 58.5t-58.5 77t-15.5 77zM385 1221h102v223h-102v-223zM852 1221h102v223h-102v-223z" />
<glyph unicode="&#xe5;" horiz-adv-x="1337" d="M100 276q0 -61 26 -121.5t84 -107.5t154.5 -75.5t237.5 -28.5q39 0 93.5 6t112.5 23.5t117.5 46t110.5 73.5q12 -57 70 -125h135l-61 70q-16 18 -25.5 31.5t-13.5 30t-5 39t-1 59.5v573q0 186 -113 281.5t-367 95.5q-57 0 -107 -5t-87 -10.5t-59 -10.5l-21 -5l10 -104 l63 18q62 17 199 17q111 0 182.5 -17.5t114.5 -53.5t60.5 -90.5t17.5 -125.5v-23q-219 -18 -392 -48t-292 -81t-181.5 -131t-62.5 -201zM207 279q0 86 48 145t148.5 100t256 67.5t368.5 45.5v-416q-49 -59 -107.5 -94t-117 -53.5t-110.5 -24.5t-87 -6q-127 0 -204.5 23.5 t-120.5 58.5t-58.5 77t-15.5 77zM479 1317q0 -41 17.5 -70.5t45 -50t61.5 -30t65 -9.5h2q33 0 66.5 9.5t61 30t45 50t17.5 70.5t-17.5 70.5t-45 50t-61.5 30t-66 9.5q-33 0 -67 -9.5t-61.5 -30t-45 -50t-17.5 -70.5zM582 1317q0 23 21.5 51.5t64.5 28.5t64.5 -28.5 t21.5 -51.5q0 -20 -17.5 -50t-66.5 -30h-2q-25 0 -42.5 9t-26.5 21.5t-13 26t-4 23.5z" />
<glyph unicode="&#xe6;" horiz-adv-x="2314" d="M100 276q0 -61 26 -121.5t84 -107.5t154.5 -75.5t237.5 -28.5q164 0 301 61.5t242 165.5q53 -72 119.5 -116t135 -68.5t134 -33.5t119.5 -9q82 0 182 17t188 38.5t147 39.5l60 17l-22 105q-14 -4 -71.5 -23.5t-138.5 -40t-174 -37t-179 -16.5q-84 0 -171.5 24.5t-161 80 t-122.5 146.5t-55 224h1095q0 145 -40 255t-117 192q-84 86 -192.5 134t-231.5 48q-96 0 -179.5 -21.5t-151 -58.5t-118.5 -87t-84 -108q-12 61 -42 111.5t-83 87.5t-135 56.5t-201 19.5q-111 0 -182.5 -9.5t-114.5 -21.5t-59 -22l-16 -9l24 -86q2 2 30 12.5t107.5 23 t208.5 12.5q113 0 186.5 -19.5t114.5 -56.5t57.5 -90.5t16.5 -120.5v-23q-219 -18 -392 -48t-292 -81t-181.5 -131t-62.5 -201zM207 279q0 86 48 145t148.5 100t256 67.5t368.5 45.5v-78q0 -90 17.5 -165t46.5 -136q-39 -43 -91.5 -82t-115 -68.5t-133 -47t-146.5 -17.5 q-127 0 -204.5 23.5t-120.5 58.5t-58.5 77t-15.5 77zM1137 621q6 80 40.5 155.5t99 136t157 97.5t215.5 37q98 0 180 -35t143.5 -94.5t98.5 -136t47 -160.5h-981z" />
<glyph unicode="&#xe7;" horiz-adv-x="1378" d="M111 545q0 -147 47 -256t125.5 -182.5t182 -113.5t216.5 -48l-76 -97l72 -38q23 6 56.5 12t65 4t54.5 -13.5t23 -41.5q0 -20 -14.5 -32.5t-36 -19t-48 -8.5t-51.5 -2q-49 0 -90 10.5t-88 32.5l-60 -82q53 -27 109.5 -44t128.5 -17q49 0 94 9t80 28.5t56.5 50.5t21.5 74 t-18.5 70.5t-46 45t-61.5 24.5t-65 9l19 23q98 6 174 31.5t135.5 64.5t104.5 89.5t82 107.5l-97 49q-33 -53 -73.5 -97.5t-94 -76t-124 -50t-162.5 -18.5q-102 0 -197.5 28.5t-171.5 90t-121 156t-45 227.5q0 127 46 221t121 156.5t171 93.5t197 31q82 0 144 -13.5 t113.5 -39t92.5 -64.5t78 -88l92 53q-47 61 -99.5 108.5t-115 79t-137 48t-168.5 16.5q-119 0 -234 -36t-206 -110.5t-146 -188.5t-55 -267z" />
<glyph unicode="&#xe8;" horiz-adv-x="1396" d="M111 559q0 -154 46 -264.5t126 -188.5q92 -86 208.5 -124.5t239.5 -38.5q82 0 182.5 17t188.5 38.5t148 39.5l59 17l-23 105q-14 -4 -70.5 -23.5t-136.5 -40t-173 -37t-179 -16.5q-84 0 -171 24.5t-160.5 80t-123 146.5t-55.5 224h1096q0 154 -43 262.5t-115 184.5 q-86 90 -194.5 136t-229.5 46q-137 0 -244.5 -41t-191.5 -113q-88 -78 -136 -187.5t-48 -246.5zM219 621q6 86 45 163.5t106.5 136t159 92.5t201.5 34q98 0 180 -35t143.5 -94.5t98.5 -136t47 -160.5h-981zM281 1497l417 -297h138l-365 297h-190z" />
<glyph unicode="&#xe9;" horiz-adv-x="1396" d="M111 559q0 -154 46 -264.5t126 -188.5q92 -86 208.5 -124.5t239.5 -38.5q82 0 182.5 17t188.5 38.5t148 39.5l59 17l-23 105q-14 -4 -70.5 -23.5t-136.5 -40t-173 -37t-179 -16.5q-84 0 -171 24.5t-160.5 80t-123 146.5t-55.5 224h1096q0 154 -43 262.5t-115 184.5 q-86 90 -194.5 136t-229.5 46q-137 0 -244.5 -41t-191.5 -113q-88 -78 -136 -187.5t-48 -246.5zM219 621q6 86 45 163.5t106.5 136t159 92.5t201.5 34q98 0 180 -35t143.5 -94.5t98.5 -136t47 -160.5h-981zM561 1200h137l418 297h-190z" />
<glyph unicode="&#xea;" horiz-adv-x="1396" d="M111 559q0 -154 46 -264.5t126 -188.5q92 -86 208.5 -124.5t239.5 -38.5q82 0 182.5 17t188.5 38.5t148 39.5l59 17l-23 105q-14 -4 -70.5 -23.5t-136.5 -40t-173 -37t-179 -16.5q-84 0 -171 24.5t-160.5 80t-123 146.5t-55.5 224h1096q0 154 -43 262.5t-115 184.5 q-86 90 -194.5 136t-229.5 46q-137 0 -244.5 -41t-191.5 -113q-88 -78 -136 -187.5t-48 -246.5zM219 621q6 86 45 163.5t106.5 136t159 92.5t201.5 34q98 0 180 -35t143.5 -94.5t98.5 -136t47 -160.5h-981zM303 1178h154l241 131l242 -131h154l-383 254h-25z" />
<glyph unicode="&#xeb;" horiz-adv-x="1396" d="M111 559q0 -154 46 -264.5t126 -188.5q92 -86 208.5 -124.5t239.5 -38.5q82 0 182.5 17t188.5 38.5t148 39.5l59 17l-23 105q-14 -4 -70.5 -23.5t-136.5 -40t-173 -37t-179 -16.5q-84 0 -171 24.5t-160.5 80t-123 146.5t-55.5 224h1096q0 154 -43 262.5t-115 184.5 q-86 90 -194.5 136t-229.5 46q-137 0 -244.5 -41t-191.5 -113q-88 -78 -136 -187.5t-48 -246.5zM219 621q6 86 45 163.5t106.5 136t159 92.5t201.5 34q98 0 180 -35t143.5 -94.5t98.5 -136t47 -160.5h-981zM414 1221h102v223h-102v-223zM881 1221h102v223h-102v-223z" />
<glyph unicode="&#xec;" horiz-adv-x="573" d="M-49 1477l418 -297h137l-365 297h-190zM233 -33h107v1155h-107v-1155z" />
<glyph unicode="&#xed;" horiz-adv-x="573" d="M68 1180h137l418 297h-191zM233 -33h107v1155h-107v-1155z" />
<glyph unicode="&#xee;" horiz-adv-x="573" d="M-109 1178h154l242 131l241 -131h154l-383 254h-25zM233 -33h107v1155h-107v-1155z" />
<glyph unicode="&#xef;" horiz-adv-x="573" d="M2 1221h102v223h-102v-223zM233 -33h107v1155h-107v-1155zM469 1221h102v223h-102v-223z" />
<glyph unicode="&#xf0;" horiz-adv-x="1513" d="M111 545q0 -121 39.5 -229.5t120.5 -191.5t202 -132t283 -49q154 0 274.5 45t198.5 133q37 43 69.5 89t55 105.5t36 137t13.5 186.5q0 119 -35 242t-100 229q-43 66 -105.5 131.5t-146.5 120.5l303 94l-94 74l-324 -100q-111 47 -231.5 77.5t-249.5 38.5l-219 -88 q111 -4 194.5 -12t148 -18.5t114 -21.5t87.5 -24l-428 -131l99 -73l471 145q123 -68 188.5 -136.5t104.5 -125.5q29 -47 53 -96q-94 98 -221 140t-256 42q-133 0 -251 -40t-206 -117t-138 -189.5t-50 -255.5zM217 545q0 117 41 210t113.5 157.5t171 99.5t215.5 35 q129 0 229 -40t169 -106.5t104.5 -152t35.5 -175.5q0 -92 -27.5 -186t-90 -171t-166 -125t-252.5 -48h-2q-139 0 -240.5 42t-168 110.5t-99.5 159.5t-33 190z" />
<glyph unicode="&#xf1;" horiz-adv-x="1476" d="M213 -33h106v862q27 20 62 45t74 48.5t76.5 42t68.5 30.5q139 51 258 52q98 0 154.5 -24t91.5 -56q39 -41 51 -91.5t12 -109.5v-799h107v801q0 92 -23.5 155.5t-70.5 112.5q-106 111 -318 111q-72 0 -143.5 -13.5t-149.5 -43.5q-125 -51 -256 -142q2 29 3 72t2 70.5 t1 31.5h-106v-1155zM418 1309l69 -70q37 41 62.5 51t60.5 10q29 0 56.5 -5t42.5 -9l41 -12q35 -10 67.5 -14.5t54.5 -4.5q51 0 98.5 19t94.5 76l-70 69q-37 -41 -62.5 -51t-60.5 -10q-29 0 -56.5 5t-41.5 9l-41 12q-35 10 -67.5 14.5t-55.5 4.5q-51 0 -98 -18.5t-94 -75.5z " />
<glyph unicode="&#xf2;" horiz-adv-x="1513" d="M111 545q0 -121 39.5 -229.5t120.5 -191.5t202 -132t285 -49q168 0 289.5 51t200.5 135t117 191.5t38 222.5v2q0 143 -51.5 255.5t-138.5 189.5t-204.5 117t-250.5 40q-135 0 -253 -40t-205 -117t-138 -189.5t-51 -255.5zM217 543q0 117 41 210t113.5 157.5t171 99 t215.5 34.5q115 0 213 -33.5t170.5 -98t113.5 -157.5t41 -212q0 -98 -32.5 -189.5t-99 -160t-168 -110.5t-236.5 -42h-2q-139 0 -240.5 42t-168 110.5t-99.5 159.5t-33 190zM340 1497l418 -297h137l-348 297h-207z" />
<glyph unicode="&#xf3;" horiz-adv-x="1513" d="M111 545q0 -121 39.5 -229.5t120.5 -191.5t202 -132t285 -49q168 0 289.5 51t200.5 135t117 191.5t38 222.5v2q0 143 -51.5 255.5t-138.5 189.5t-204.5 117t-250.5 40q-135 0 -253 -40t-205 -117t-138 -189.5t-51 -255.5zM217 543q0 117 41 210t113.5 157.5t171 99 t215.5 34.5q115 0 213 -33.5t170.5 -98t113.5 -157.5t41 -212q0 -98 -32.5 -189.5t-99 -160t-168 -110.5t-236.5 -42h-2q-139 0 -240.5 42t-168 110.5t-99.5 159.5t-33 190zM621 1200h137l418 297h-191z" />
<glyph unicode="&#xf4;" horiz-adv-x="1513" d="M111 545q0 -121 39.5 -229.5t120.5 -191.5t202 -132t285 -49q168 0 289.5 51t200.5 135t117 191.5t38 222.5v2q0 143 -51.5 255.5t-138.5 189.5t-204.5 117t-250.5 40q-135 0 -253 -40t-205 -117t-138 -189.5t-51 -255.5zM217 543q0 117 41 210t113.5 157.5t171 99 t215.5 34.5q115 0 213 -33.5t170.5 -98t113.5 -157.5t41 -212q0 -98 -32.5 -189.5t-99 -160t-168 -110.5t-236.5 -42h-2q-139 0 -240.5 42t-168 110.5t-99.5 159.5t-33 190zM362 1178h154l242 131l241 -131h154l-383 254h-25z" />
<glyph unicode="&#xf5;" horiz-adv-x="1513" d="M111 545q0 -121 39.5 -229.5t120.5 -191.5t202 -132t285 -49q168 0 289.5 51t200.5 135t117 191.5t38 222.5v2q0 143 -51.5 255.5t-138.5 189.5t-204.5 117t-250.5 40q-135 0 -253 -40t-205 -117t-138 -189.5t-51 -255.5zM217 543q0 117 41 210t113.5 157.5t171 99 t215.5 34.5q115 0 213 -33.5t170.5 -98t113.5 -157.5t41 -212q0 -98 -32.5 -189.5t-99 -160t-168 -110.5t-236.5 -42h-2q-139 0 -240.5 42t-168 110.5t-99.5 159.5t-33 190zM436 1309l70 -70q37 41 62.5 51t60.5 10q29 0 56.5 -5t41.5 -9l41 -12q35 -10 67.5 -14.5 t55.5 -4.5q51 0 98 19t94 76l-69 69q-37 -41 -62.5 -51t-60.5 -10q-29 0 -56.5 5t-41.5 9l-41 12q-35 10 -68 14.5t-55 4.5q-51 0 -98.5 -18.5t-94.5 -75.5z" />
<glyph unicode="&#xf6;" horiz-adv-x="1513" d="M129 545q0 -121 40 -229.5t121 -191.5t201.5 -132t284.5 -49q168 0 290 51t201 135t116.5 191.5t37.5 222.5v2q0 143 -51 255.5t-138 189.5t-205 117t-251 40q-135 0 -252.5 -40t-205 -117t-138.5 -189.5t-51 -255.5zM236 543q0 117 40.5 210t113.5 157.5t171 99 t215 34.5q115 0 213 -33.5t171 -98t114 -157.5t41 -212q0 -98 -33 -189.5t-99.5 -160t-167 -110.5t-237.5 -42h-2q-139 0 -240.5 42t-168 110.5t-99 159.5t-32.5 190zM492 1221h102v223h-102v-223zM958 1221h103v223h-103v-223z" />
<glyph unicode="&#xf7;" horiz-adv-x="1239" d="M59 471h1115v98h-1115v-98zM545 809q0 -29 20.5 -49.5t48.5 -20.5q29 0 49.5 20.5t20.5 49.5t-19.5 49.5t-48.5 20.5h-2q-29 0 -49 -20.5t-20 -49.5zM547 231q0 -29 20.5 -49t48.5 -20q29 0 49.5 20t20.5 49t-19.5 49.5t-48.5 20.5h-2q-29 0 -49 -20.5t-20 -49.5z" />
<glyph unicode="&#xf8;" horiz-adv-x="1513" d="M27 2l65 -78l207 176q27 -27 67 -54.5t95 -51t128 -38.5t165 -15q168 0 290.5 51t202.5 135t118 192.5t38 223.5q0 98 -30 192t-95 180l209 168l-66 78l-207 -176q-70 66 -179 113t-275 47q-135 0 -254 -40t-207 -117t-138 -189.5t-50 -255.5q0 -98 29.5 -192.5 t95.5 -180.5zM217 543q0 117 41 210t113.5 157.5t172 99t218.5 34.5q70 0 134.5 -11t111.5 -29q49 -18 81.5 -38t55.5 -40l-836 -699q-31 43 -61.5 121t-30.5 195zM369 160l835 698q31 -43 61.5 -120.5t30.5 -194.5q0 -98 -31.5 -189.5t-98 -160t-169 -110.5t-243.5 -42 q-72 0 -136.5 11t-111.5 29.5t-81 38t-56 40.5z" />
<glyph unicode="&#xf9;" horiz-adv-x="1476" d="M203 322q0 -92 23.5 -156t70.5 -113q106 -111 317 -110q137 0 293 59q66 27 126.5 61.5t129.5 81.5q-2 -23 -3 -53.5t-2 -58t-1 -45.5v-21h107v1155h-107v-862q-76 -57 -149.5 -98t-130.5 -64q-68 -29 -133.5 -42t-125.5 -13q-100 0 -157.5 25.5t-85.5 54.5 q-41 39 -53.5 89t-12.5 112v798h-106v-800zM322 1436l417 -297h138l-365 297h-190z" />
<glyph unicode="&#xfa;" horiz-adv-x="1476" d="M203 322q0 -92 23.5 -156t70.5 -113q106 -111 317 -110q137 0 293 59q66 27 126.5 61.5t129.5 81.5q-2 -23 -3 -53.5t-2 -58t-1 -45.5v-21h107v1155h-107v-862q-76 -57 -149.5 -98t-130.5 -64q-68 -29 -133.5 -42t-125.5 -13q-100 0 -157.5 25.5t-85.5 54.5 q-41 39 -53.5 89t-12.5 112v798h-106v-800zM602 1139h137l418 297h-190z" />
<glyph unicode="&#xfb;" horiz-adv-x="1476" d="M203 322q0 -92 23.5 -156t70.5 -113q106 -111 317 -110q137 0 293 59q66 27 126.5 61.5t129.5 81.5q-2 -23 -3 -53.5t-2 -58t-1 -45.5v-21h107v1155h-107v-862q-76 -57 -149.5 -98t-130.5 -64q-68 -29 -133.5 -42t-125.5 -13q-100 0 -157.5 25.5t-85.5 54.5 q-41 39 -53.5 89t-12.5 112v798h-106v-800zM344 1178h154l241 131l242 -131h154l-383 254h-25z" />
<glyph unicode="&#xfc;" horiz-adv-x="1476" d="M203 322q0 -92 23.5 -156t70.5 -113q106 -111 317 -110q137 0 293 59q66 27 126.5 61.5t129.5 81.5q-2 -23 -3 -53.5t-2 -58t-1 -45.5v-21h107v1155h-107v-862q-76 -57 -149.5 -98t-130.5 -64q-68 -29 -133.5 -42t-125.5 -13q-100 0 -157.5 25.5t-85.5 54.5 q-41 39 -53.5 89t-12.5 112v798h-106v-800zM455 1221h102v223h-102v-223zM922 1221h102v223h-102v-223z" />
<glyph unicode="&#xfd;" horiz-adv-x="1353" d="M-29 -477q47 -27 78 -42.5t70 -25.5q35 -10 74.5 -16t93.5 -6q109 0 184.5 32.5t128.5 79.5q53 49 86 104.5t53 102.5l592 1370h-114l-224 -522q-49 -115 -99 -233.5t-101 -239.5q-158 250 -313.5 497.5t-311.5 497.5h-125l698 -1108l-100 -227q-43 -102 -111 -166 q-88 -88 -243 -88q-41 0 -74 5t-61 13q-31 10 -60 25.5t-65 38.5zM623 1139h137l418 297h-191z" />
<glyph unicode="&#xfe;" horiz-adv-x="1513" d="M213 -541h106v643q41 -33 87.5 -60.5t87.5 -45.5q86 -37 156.5 -45t121.5 -8q154 0 270.5 52t190.5 130q86 94 123 203.5t37 220.5q0 129 -42 231.5t-114 180.5q-178 186 -465 186q-86 0 -157.5 -14.5t-135.5 -42.5q-96 -47 -160 -99v531h-106v-2063zM319 233v625 q92 92 203 139q63 29 125 39.5t125 10.5q129 0 224.5 -42t161 -112t97 -158t31.5 -186q0 -117 -36 -204t-95 -148q-76 -82 -174 -118t-209 -36q-76 0 -136.5 12.5t-107.5 34.5q-43 18 -95 51t-114 92z" />
<glyph unicode="&#xff;" horiz-adv-x="1353" d="M-29 -477q47 -27 78 -42.5t70 -25.5q35 -10 74.5 -16t93.5 -6q109 0 184.5 32.5t128.5 79.5q53 49 86 104.5t53 102.5l592 1370h-114l-224 -522q-49 -115 -99 -233.5t-101 -239.5q-158 250 -313.5 497.5t-311.5 497.5h-125l698 -1108l-100 -227q-43 -102 -111 -166 q-88 -88 -243 -88q-41 0 -74 5t-61 13q-31 10 -60 25.5t-65 38.5zM440 1221h103v223h-103v-223zM907 1221h103v223h-103v-223z" />
<glyph unicode="&#x152;" horiz-adv-x="2521" d="M131 725q0 -184 63.5 -330.5t180.5 -248t281.5 -154.5t367.5 -53q162 0 244 10t110 18h992v105h-936v635h737v104h-737v569h907v105h-963q-35 8 -117.5 18t-236.5 10q-203 0 -367.5 -54t-281.5 -155.5t-180.5 -248t-63.5 -330.5zM242 725q0 162 55 290t157.5 216t247 134 t324.5 46q137 0 217 3t80 -11v-1354q0 -14 -80 -11t-217 3q-180 0 -324.5 46t-247 134t-157.5 215t-55 289z" />
<glyph unicode="&#x153;" horiz-adv-x="2523" d="M111 545q0 -131 44 -241.5t123.5 -190.5t192.5 -125t250 -45q119 0 212 26.5t163.5 72.5t119 108.5t76.5 132.5q43 -102 110.5 -168t145.5 -105t159 -53t151 -14q82 0 182 17t188 38.5t148 39.5l59 17l-22 105q-14 -4 -70.5 -23.5t-136.5 -40t-173.5 -37t-179.5 -16.5 q-80 0 -168 24.5t-162.5 80t-124.5 146.5t-57 224h1098q0 154 -43 262.5t-115 184.5q-86 90 -194.5 136t-228.5 46q-115 0 -207 -28.5t-164 -76t-122 -110t-79 -129.5q-23 53 -63.5 113.5t-107 111.5t-164 85t-230.5 34q-129 0 -239.5 -42t-193.5 -120t-130 -189.5 t-47 -250.5zM217 543v2q0 133 45 228t118 155.5t163 89.5t180 29q113 0 207 -35t161.5 -100.5t105.5 -157.5t38 -209q0 -127 -38 -221.5t-105.5 -157t-161.5 -93t-207 -30.5q-115 0 -208 37t-158.5 103.5t-102.5 158.5t-37 201zM1343 618q6 74 40 150t97.5 137.5t157 100 t217.5 38.5q98 0 180.5 -34.5t144 -94t99.5 -136.5t48 -161h-984z" />
<glyph unicode="&#x178;" horiz-adv-x="1433" d="M6 1485l656 -871v-647h110v647l655 871h-133l-305 -406q-68 -92 -135.5 -182l-136.5 -182q-68 92 -136.5 181t-136.5 181l-305 408h-133zM428 1456h102v213h-102v-213zM903 1456h103v213h-103v-213z" />
<glyph unicode="&#x2c6;" d="M117 1178h153l242 131l242 -131h153l-383 254h-24z" />
<glyph unicode="&#x2dc;" d="M190 1309l70 -70q37 41 62.5 51t60.5 10q29 0 56.5 -5t41.5 -9l41 -12q35 -10 68 -14.5t55 -4.5q51 0 98.5 19t94.5 76l-70 69q-37 -41 -62.5 -51t-60.5 -10q-29 0 -56.5 5t-41.5 9l-41 12q-35 10 -67.5 14.5t-55.5 4.5q-51 0 -98 -18.5t-95 -75.5z" />
<glyph unicode="&#x2000;" horiz-adv-x="894" />
<glyph unicode="&#x2001;" horiz-adv-x="1788" />
<glyph unicode="&#x2002;" horiz-adv-x="894" />
<glyph unicode="&#x2003;" horiz-adv-x="1788" />
<glyph unicode="&#x2004;" horiz-adv-x="596" />
<glyph unicode="&#x2005;" horiz-adv-x="447" />
<glyph unicode="&#x2006;" horiz-adv-x="298" />
<glyph unicode="&#x2007;" horiz-adv-x="298" />
<glyph unicode="&#x2008;" horiz-adv-x="223" />
<glyph unicode="&#x2009;" horiz-adv-x="357" />
<glyph unicode="&#x200a;" horiz-adv-x="99" />
<glyph unicode="&#x2010;" horiz-adv-x="817" d="M-2 637h645v102h-645v-102z" />
<glyph unicode="&#x2011;" horiz-adv-x="817" d="M-2 637h645v102h-645v-102z" />
<glyph unicode="&#x2012;" horiz-adv-x="817" d="M-2 637h645v102h-645v-102z" />
<glyph unicode="&#x2013;" horiz-adv-x="1228" d="M29 463h1171v98h-1171v-98z" />
<glyph unicode="&#x2014;" horiz-adv-x="2457" d="M29 463h2400v98h-2400v-98z" />
<glyph unicode="&#x2018;" horiz-adv-x="471" d="M111 1485l106 -387h88l-76 387h-118z" />
<glyph unicode="&#x2019;" horiz-adv-x="471" d="M166 1098h88l106 387h-118z" />
<glyph unicode="&#x201a;" horiz-adv-x="1206" d="M326 -545h106v1778q0 90 35 148.5t92 93t129 48t156 13.5q72 0 136 -10t118 -29q47 -16 85 -39.5t79 -71.5l61 95q-59 47 -103 71.5t-87 40.5q-66 25 -137.5 34t-151.5 9q-104 0 -191.5 -18.5t-152.5 -58.5q-86 -51 -130 -134.5t-44 -189.5v-1780z" />
<glyph unicode="&#x201c;" horiz-adv-x="722" d="M111 1485l106 -387h88l-76 387h-118zM362 1485l107 -387h88l-76 387h-119z" />
<glyph unicode="&#x201d;" horiz-adv-x="722" d="M166 1098h88l106 387h-118zM418 1098h88l106 387h-118z" />
<glyph unicode="&#x201e;" horiz-adv-x="722" d="M166 -197h88l106 387h-118zM418 -197h88l106 387h-118z" />
<glyph unicode="&#x2022;" horiz-adv-x="1167" d="M424 698q0 -66 47 -112.5t113 -46.5t112.5 46.5t46.5 112.5t-47 113t-112 47q-33 0 -61.5 -12t-50 -33.5t-35 -51.5t-13.5 -63z" />
<glyph unicode="&#x2026;" horiz-adv-x="2457" d="M356 -33h107v230h-107v-230zM1176 -33h106v230h-106v-230zM1995 -33h106v230h-106v-230z" />
<glyph unicode="&#x202f;" horiz-adv-x="357" />
<glyph unicode="&#x2039;" horiz-adv-x="782" d="M137 494l463 -447v137l-326 326l326 326v137l-463 -447v-32z" />
<glyph unicode="&#x203a;" horiz-adv-x="782" d="M182 47l463 447v32l-463 447v-137l326 -326l-326 -326v-137z" />
<glyph unicode="&#x205f;" horiz-adv-x="447" />
<glyph unicode="&#x20ac;" horiz-adv-x="1728" d="M16 563h211q25 -127 83.5 -232.5t148.5 -189.5q92 -86 240.5 -144t334.5 -58q127 0 229.5 34.5t185.5 89t146.5 121.5t112.5 133l-90 62q-39 -53 -93.5 -112.5t-127 -110t-162.5 -83t-201 -32.5q-121 0 -234.5 31.5t-206.5 97.5t-160.5 163t-94.5 230h1229v99h-1241 q-2 16 -2 30v33q0 51 6 100h1237v99h-1221q33 129 103.5 221t166 151.5t206 87t222.5 27.5q94 0 172 -22.5t142.5 -63.5t116 -96t92.5 -119l92 57q-47 76 -108.5 139.5t-137.5 109.5t-168 71.5t-201 25.5q-180 0 -331.5 -54t-263.5 -159q-78 -74 -133.5 -168t-82.5 -208 h-217v-99h203q-6 -49 -6 -98v-33q0 -16 2 -32h-199v-99z" />
<glyph unicode="&#x2122;" horiz-adv-x="2396" d="M37 1389h360v-699h103v699h360v96h-823v-96zM932 690h98v383v252q47 -70 93 -135.5t94 -132.5l256 -367h73l254 363q47 68 94.5 134t94.5 138v-252v-383h102v795h-106l-254 -363q-109 -154 -222 -313q-53 78 -108 156.5t-111 156.5l-254 363h-104v-795z" />
<glyph unicode="&#x25fc;" horiz-adv-x="1126" d="M0 0v1126h1126v-1126h-1126z" />
</font>
</defs>
</svg>
